<svg width="107" height="87" viewBox="0 0 107 87" fill="none" xmlns="http://www.w3.org/2000/svg">
<path d="M104 36.7241C103.464 35.0983 102.957 33.7249 102.562 32.2953C102.308 31.3984 101.8 31.1461 100.926 31.1741C98.1619 31.2862 95.3696 31.1461 92.6338 31.4825C89.898 31.8188 88.0365 31.0059 86.7955 28.5673C86.4289 27.8385 85.8084 27.1938 85.2725 26.5491C84.5392 25.6802 84.3981 24.8113 84.8212 23.7181C86.034 20.6348 87.0776 17.4954 88.2903 14.3841C88.6852 13.375 88.4878 12.7583 87.5852 12.1697C85.9212 11.0485 84.3699 9.84317 82.7623 8.72197C80.5059 7.18031 81.1264 7.06819 78.8701 8.75C76.3881 10.6 73.9061 12.4219 71.4523 14.328C70.6626 14.9447 69.9011 15.0288 68.9703 14.6924C67.4755 14.1318 65.9807 13.5712 64.4294 13.2348C63.1038 12.9265 62.4833 12.1697 62.1449 10.9364C61.2423 7.79697 60.227 4.68563 59.3244 1.54625C59.0706 0.649284 58.6193 0.200801 57.6886 0.172771C55.3758 0.144741 53.0913 0.144741 50.8067 0.03262C49.5375 -0.0234403 48.8324 0.425042 48.4657 1.6864C47.6196 4.74169 46.6042 7.74091 45.7299 10.7962C45.3914 12.0015 44.8274 12.7023 43.53 12.9826C41.8941 13.3469 40.2583 13.8515 38.707 14.4682C37.6352 14.8886 36.8455 14.6924 35.9994 14.0477C33.2354 11.9454 30.4431 9.89924 27.7073 7.76894C26.974 7.20834 26.4099 7.20834 25.7048 7.74091C23.7305 9.17045 21.728 10.572 19.7254 11.9174C18.8793 12.478 18.8511 13.0666 19.1896 13.9356C20.4306 17.159 21.6151 20.4105 22.7151 23.662C22.9125 24.2507 22.7151 25.1476 22.3767 25.6802C21.3613 27.2499 20.1203 28.6794 19.0767 30.2211C18.4562 31.1181 17.7229 31.4825 16.623 31.4264C13.1538 31.2862 9.68467 31.2022 6.18733 31.1741C5.70785 31.1741 4.94634 31.3984 4.80531 31.7347C4.15661 33.3044 3.67714 34.9302 3.05664 36.7241C3.81816 36.7241 4.32584 36.7241 4.86172 36.7241C10.0231 36.7241 15.2127 36.612 20.3741 36.7802C22.4049 36.8362 23.7587 36.4438 24.4356 34.4256C24.6612 33.7809 25.1689 33.2203 25.5355 32.6597C34.0533 19.5977 51.5118 14.328 65.9243 20.3825C73.3984 23.5219 79.0111 28.6234 82.8751 35.715C83.1007 36.1635 83.7212 36.6961 84.1443 36.6961C90.6595 36.7521 97.2029 36.7241 104 36.7241Z" fill="white"/>
<path d="M104 36.7241C97.1745 36.7241 90.6593 36.7522 84.1159 36.6681C83.6928 36.6681 83.0723 36.1355 82.8467 35.687C78.9827 28.5954 73.37 23.4939 65.8958 20.3545C51.5116 14.328 34.053 19.5977 25.4789 32.6317C25.084 33.2204 24.5764 33.7529 24.3789 34.3976C23.702 36.4158 22.3482 36.8362 20.3175 36.7522C15.1561 36.584 9.99469 36.6961 4.80508 36.6961C4.2974 36.6961 3.78972 36.6961 3 36.6961C3.59229 34.9302 4.07177 33.2764 4.74867 31.7067C4.8897 31.3704 5.65121 31.1461 6.13069 31.1461C9.59983 31.1742 13.0972 31.2582 16.5663 31.3984C17.6945 31.4545 18.3996 31.0901 19.0201 30.1931C20.0919 28.6514 21.3047 27.2219 22.32 25.6522C22.6585 25.1196 22.8559 24.2227 22.6585 23.634C21.5585 20.3545 20.3457 17.131 19.1329 13.9076C18.7945 13.0386 18.8509 12.45 19.6688 11.8894C21.6995 10.544 23.6738 9.11442 25.6481 7.71291C26.3532 7.20837 26.9173 7.18034 27.6506 7.74094C30.3865 9.87123 33.2069 11.9174 35.9427 14.0197C36.7889 14.6644 37.5786 14.8886 38.6504 14.4401C40.2016 13.8235 41.8375 13.3189 43.4733 12.9546C44.7707 12.6742 45.3348 11.9735 45.6733 10.7682C46.5194 7.71291 47.5348 4.71369 48.4091 1.6584C48.7757 0.397042 49.4809 -0.0514402 50.7501 0.00462013C53.0346 0.116741 55.3474 0.116741 57.6319 0.144771C58.5909 0.144771 59.0139 0.593253 59.2678 1.51825C60.1703 4.65763 61.1857 7.76897 62.0882 10.9083C62.4267 12.1417 63.0472 12.8985 64.3728 13.2068C65.924 13.5712 67.4189 14.1038 68.9137 14.6644C69.8444 15.0288 70.6059 14.9167 71.3957 14.3C73.8495 12.422 76.3314 10.572 78.8134 8.722C81.0698 7.04019 80.4775 7.15231 82.7056 8.69397C84.3133 9.81517 85.8927 11.0205 87.5286 12.0856C88.4311 12.6742 88.6286 13.2909 88.2337 14.3C87.0491 17.3833 85.9773 20.5227 84.7646 23.634C84.3415 24.7272 84.4825 25.5962 85.2158 26.4651C85.7517 27.1098 86.344 27.7545 86.7389 28.4833C87.9799 30.9219 89.8414 31.7348 92.5772 31.3984C95.313 31.062 98.1052 31.2022 100.869 31.0901C101.744 31.062 102.251 31.3423 102.505 32.2113C102.985 33.7249 103.492 35.0984 104 36.7241Z" fill="#FF3811"/>
<path d="M75.3442 46.1983C72.0161 42.9188 68.6598 39.6112 65.3034 36.2756C64.7111 35.687 64.3445 36.0794 63.9214 36.4999C62.342 38.0976 60.7625 39.6953 59.1549 41.237C58.1395 42.218 57.0395 43.171 55.9678 44.1241C56.0524 44.2642 56.137 44.3763 56.2216 44.5165C59.3523 43.8998 62.0881 44.5445 64.3445 46.7589C66.5726 48.9733 67.1649 51.7483 66.6008 54.7475C69.5341 51.8884 72.3827 49.0854 75.3442 46.1983Z" fill="white"/>
<path d="M51.0322 44.3483C50.6091 43.8718 50.4117 43.5634 50.1579 43.3112C47.9015 41.0687 45.5888 38.8824 43.3888 36.5839C42.5991 35.771 42.1196 35.7991 41.3581 36.5839C38.4248 39.5551 35.4916 42.4703 32.4737 45.3574C31.7122 46.0861 31.8814 46.5346 32.5301 47.1793C34.8993 49.5058 37.2403 51.8604 39.6094 54.1869C39.8069 54.3831 40.0889 54.4952 40.4274 54.7194C39.4402 47.9922 44.1785 43.3672 51.0322 44.3483Z" fill="white"/>
<path d="M40.0604 33.3604C36.4784 36.9763 33.0093 40.5081 29.5684 43.9839C29.8222 44.3202 30.1607 44.7967 30.4709 45.1892C34.1093 41.5733 37.6066 38.1256 41.3296 34.4536C40.9347 34.1173 40.4835 33.7248 40.0604 33.3604Z" fill="white"/>
<path d="M80.0827 41.5733C79.9981 41.4332 79.9417 41.265 79.8289 41.1248C76.6418 37.9574 73.4829 34.8181 70.2958 31.6507C69.7599 31.1181 69.3651 31.0901 68.7728 31.6507C68.1523 32.2673 68.2651 32.6878 68.8292 33.2484C71.6778 36.0234 74.47 38.8264 77.2905 41.6294C77.7418 42.0779 78.2212 42.4983 78.8699 43.115C79.293 42.5824 79.6315 42.162 80.0827 41.5733Z" fill="white"/>
<path d="M77.8266 43.8157C74.5549 40.5642 71.3396 37.3968 68.1243 34.1733C67.5884 33.6408 67.1371 33.2203 66.4038 34.0052C65.6987 34.762 66.0935 35.2105 66.6576 35.743C69.5345 38.5741 72.3831 41.4051 75.2318 44.2362C76.501 45.5255 76.5292 45.5255 77.8266 43.8157Z" fill="white"/>
<path d="M38.8756 32.3233C37.6064 30.7817 37.6346 30.7817 36.2808 32.0991C33.5168 34.846 30.7527 37.565 28.0169 40.3119C26.6913 41.6293 26.7195 41.7975 28.299 42.6945C31.8245 39.2468 35.3219 35.7991 38.8756 32.3233Z" fill="white"/>
<path d="M75.3442 46.1983C72.3827 49.1134 69.5341 51.8884 66.6008 54.7755C67.1649 51.7763 66.5726 49.0293 64.3445 46.7869C62.0881 44.5445 59.3241 43.9279 56.2216 44.5445C56.137 44.4044 56.0524 44.2922 55.9678 44.1521C57.0395 43.1991 58.1113 42.2741 59.1549 41.265C60.7625 39.6953 62.342 38.1256 63.9214 36.5279C64.3445 36.1074 64.7111 35.715 65.3034 36.3036C68.6598 39.5832 72.0161 42.8907 75.3442 46.1983ZM67.6444 41.6574C67.0521 42.4423 66.347 42.9748 66.4034 43.3672C66.488 43.8438 67.2213 44.2362 67.6726 44.6566C68.0675 44.2362 68.7444 43.8157 68.7726 43.3672C68.829 42.9188 68.2085 42.4142 67.6444 41.6574Z" fill="#444444"/>
<path d="M51.0322 44.3483C44.1503 43.3672 39.4402 47.9922 40.4274 54.7474C40.0889 54.5232 39.8069 54.4111 39.6094 54.2149C37.2403 51.8884 34.8993 49.5338 32.5301 47.2073C31.8814 46.5626 31.7122 46.1142 32.4737 45.3854C35.4634 42.4983 38.4248 39.5551 41.3581 36.6119C42.1196 35.8271 42.5991 35.7991 43.3888 36.6119C45.5888 38.9104 47.9015 41.0968 50.1579 43.3392C50.4117 43.5634 50.6373 43.8717 51.0322 44.3483ZM41.1889 43.4513C40.3991 42.8066 39.8915 42.1058 39.5248 42.1619C39.0171 42.246 38.5941 42.9467 38.1428 43.3672C38.5659 43.7877 38.9325 44.4604 39.412 44.5445C39.8069 44.6005 40.3427 43.9839 41.1889 43.4513Z" fill="#444444"/>
<path d="M40.0604 33.3604C40.4835 33.7248 40.9347 34.0892 41.3296 34.4536C37.6348 38.1256 34.1375 41.5733 30.4709 45.1892C30.1607 44.7687 29.794 44.2922 29.5684 43.9839C33.0093 40.5081 36.5066 36.9763 40.0604 33.3604Z" fill="#444444"/>
<path d="M80.0823 41.5733C79.631 42.162 79.2926 42.5824 78.8695 43.143C78.2208 42.5264 77.7413 42.1059 77.2901 41.6574C74.4696 38.8544 71.6774 36.0514 68.8287 33.2764C68.2364 32.7158 68.1236 32.2953 68.7723 31.6787C69.3364 31.1181 69.7595 31.1461 70.2954 31.6787C73.4543 34.8461 76.6414 37.9855 79.8285 41.1529C79.9413 41.237 79.9977 41.4332 80.0823 41.5733Z" fill="#444444"/>
<path d="M77.8266 43.8157C76.5574 45.5255 76.5292 45.5255 75.2318 44.2362C72.3831 41.4051 69.5345 38.546 66.6576 35.743C66.0935 35.2105 65.6987 34.762 66.4038 34.0052C67.1371 33.2203 67.5884 33.6408 68.1243 34.1733C71.3396 37.3968 74.5549 40.5642 77.8266 43.8157Z" fill="#444444"/>
<path d="M38.8756 32.3233C35.3219 35.8271 31.8245 39.2468 28.299 42.7225C26.7195 41.8255 26.6913 41.6574 28.0169 40.3399C30.7809 37.593 33.545 34.8741 36.2808 32.1271C37.6346 30.7817 37.6346 30.7817 38.8756 32.3233Z" fill="#444444"/>
<path d="M67.6446 41.6574C68.1805 42.4422 68.801 42.9187 68.7727 43.3672C68.7445 43.8157 68.0676 44.2362 67.6728 44.6566C67.2215 44.2362 66.4882 43.8718 66.4036 43.3672C66.3472 42.9748 67.0523 42.4422 67.6446 41.6574Z" fill="white"/>
<path d="M41.1885 43.4513C40.3424 43.9839 39.8347 44.6005 39.3835 44.5164C38.904 44.4604 38.5373 43.7596 38.1143 43.3392C38.5655 42.9187 38.9886 42.218 39.4963 42.1339C39.8911 42.1058 40.3988 42.8346 41.1885 43.4513Z" fill="white"/>
<path d="M7.98242 68.8126C7.40299 68.8126 6.88867 68.9266 6.43945 69.1544C5.99674 69.3758 5.6224 69.698 5.31641 70.1212C5.01693 70.5444 4.78906 71.0555 4.63281 71.6544C4.47656 72.2534 4.39844 72.9272 4.39844 73.6759C4.39844 74.685 4.52214 75.5476 4.76953 76.2638C5.02344 76.9734 5.41406 77.517 5.94141 77.8947C6.46875 78.2657 7.14909 78.4513 7.98242 78.4513C8.56185 78.4513 9.14128 78.3862 9.7207 78.256C10.3066 78.1258 10.9414 77.9402 11.625 77.6993V80.2384C10.9935 80.4988 10.3717 80.6844 9.75977 80.795C9.14779 80.9122 8.46094 80.9708 7.69922 80.9708C6.22786 80.9708 5.01693 80.6681 4.06641 80.0626C3.1224 79.4506 2.42253 78.5978 1.9668 77.504C1.51107 76.4038 1.2832 75.1212 1.2832 73.6564C1.2832 72.5756 1.42969 71.5861 1.72266 70.6876C2.01562 69.7892 2.44531 69.0112 3.01172 68.3536C3.57812 67.6961 4.27799 67.1883 5.11133 66.8302C5.94466 66.4721 6.90169 66.2931 7.98242 66.2931C8.69206 66.2931 9.40169 66.3842 10.1113 66.5665C10.8275 66.7423 11.5111 66.9865 12.1621 67.299L11.1855 69.7599C10.6517 69.506 10.1146 69.2846 9.57422 69.0958C9.03385 68.907 8.50326 68.8126 7.98242 68.8126ZM18.9102 69.6329C20.375 69.6329 21.498 69.9519 22.2793 70.59C23.0605 71.228 23.4512 72.198 23.4512 73.5001V80.7755H21.3711L20.7949 79.2911H20.7168C20.4043 79.6818 20.0853 80.0008 19.7598 80.2482C19.4342 80.4956 19.0599 80.6779 18.6367 80.795C18.2135 80.9122 17.6992 80.9708 17.0938 80.9708C16.4492 80.9708 15.8698 80.8471 15.3555 80.5997C14.8477 80.3523 14.4473 79.9747 14.1543 79.4669C13.8613 78.9526 13.7148 78.3016 13.7148 77.5138C13.7148 76.3549 14.1217 75.5021 14.9355 74.9552C15.7493 74.4018 16.9701 74.0958 18.5977 74.0372L20.4922 73.9786V73.5001C20.4922 72.9272 20.3424 72.5073 20.043 72.2404C19.7435 71.9734 19.3268 71.84 18.793 71.84C18.2656 71.84 17.748 71.9148 17.2402 72.0646C16.7324 72.2143 16.2246 72.4031 15.7168 72.631L14.7305 70.6193C15.3099 70.3133 15.9577 70.0724 16.6738 69.8966C17.3965 69.7208 18.1419 69.6329 18.9102 69.6329ZM20.4922 75.7169L19.3398 75.756C18.3763 75.782 17.7057 75.9545 17.3281 76.2736C16.957 76.5926 16.7715 77.0125 16.7715 77.5333C16.7715 77.9891 16.9049 78.3146 17.1719 78.5099C17.4388 78.6987 17.7871 78.7931 18.2168 78.7931C18.8548 78.7931 19.3919 78.6043 19.8281 78.2267C20.2708 77.8491 20.4922 77.312 20.4922 76.6154V75.7169ZM32.6211 69.6525C32.7708 69.6525 32.9434 69.6622 33.1387 69.6818C33.3405 69.6948 33.5033 69.7143 33.627 69.7404L33.4023 72.5333C33.3047 72.5008 33.1647 72.478 32.9824 72.465C32.8066 72.4454 32.6536 72.4357 32.5234 72.4357C32.1393 72.4357 31.765 72.4845 31.4004 72.5822C31.0423 72.6798 30.7201 72.8393 30.4336 73.0607C30.1471 73.2755 29.9193 73.562 29.75 73.92C29.5872 74.2716 29.5059 74.7045 29.5059 75.2189V80.7755H26.5273V69.8575H28.7832L29.2227 71.6935H29.3691C29.584 71.3224 29.8509 70.9838 30.1699 70.6779C30.4954 70.3654 30.8633 70.118 31.2734 69.9357C31.6901 69.7469 32.1393 69.6525 32.6211 69.6525ZM52.8848 73.5001C52.8848 75.1082 52.5755 76.4526 51.957 77.5333C51.3451 78.6075 50.4564 79.4181 49.291 79.965C48.1257 80.5053 46.7227 80.7755 45.082 80.7755H41.0391V66.4982H45.5215C47.0189 66.4982 48.3177 66.7651 49.418 67.299C50.5182 67.8263 51.3711 68.6108 51.9766 69.6525C52.582 70.6876 52.8848 71.9702 52.8848 73.5001ZM49.7402 73.5782C49.7402 72.5236 49.584 71.6577 49.2715 70.9806C48.9655 70.297 48.5098 69.7924 47.9043 69.4669C47.3053 69.1414 46.5632 68.9786 45.6777 68.9786H44.0664V78.2755H45.3652C46.8431 78.2755 47.9401 77.8816 48.6562 77.0939C49.3789 76.3061 49.7402 75.1342 49.7402 73.5782ZM65.5312 75.297C65.5312 76.2085 65.4076 77.0157 65.1602 77.7189C64.9193 78.422 64.5645 79.0177 64.0957 79.506C63.6335 79.9878 63.0736 80.3523 62.416 80.5997C61.765 80.8471 61.0293 80.9708 60.209 80.9708C59.4408 80.9708 58.7344 80.8471 58.0898 80.5997C57.4518 80.3523 56.8952 79.9878 56.4199 79.506C55.9512 79.0177 55.5866 78.422 55.3262 77.7189C55.0723 77.0157 54.9453 76.2085 54.9453 75.297C54.9453 74.0861 55.1602 73.0607 55.5898 72.2208C56.0195 71.381 56.6315 70.743 57.4258 70.3068C58.2201 69.8706 59.1673 69.6525 60.2676 69.6525C61.2897 69.6525 62.1947 69.8706 62.9824 70.3068C63.7767 70.743 64.3984 71.381 64.8477 72.2208C65.3034 73.0607 65.5312 74.0861 65.5312 75.297ZM57.9824 75.297C57.9824 76.0131 58.0605 76.6154 58.2168 77.1036C58.373 77.5919 58.6172 77.9598 58.9492 78.2072C59.2812 78.4545 59.7142 78.5782 60.248 78.5782C60.7754 78.5782 61.2018 78.4545 61.5273 78.2072C61.8594 77.9598 62.1003 77.5919 62.25 77.1036C62.4062 76.6154 62.4844 76.0131 62.4844 75.297C62.4844 74.5743 62.4062 73.9754 62.25 73.5001C62.1003 73.0184 61.8594 72.657 61.5273 72.4161C61.1953 72.1753 60.7624 72.0548 60.2285 72.0548C59.4408 72.0548 58.8678 72.325 58.5098 72.8654C58.1582 73.4057 57.9824 74.2163 57.9824 75.297ZM72.4258 80.9708C71.3451 80.9708 70.4238 80.7755 69.6621 80.3849C68.9004 79.9878 68.321 79.3758 67.9238 78.549C67.5267 77.7221 67.3281 76.6642 67.3281 75.3751C67.3281 74.0405 67.5527 72.9532 68.002 72.1134C68.4577 71.267 69.0859 70.6453 69.8867 70.2482C70.694 69.851 71.6283 69.6525 72.6895 69.6525C73.4447 69.6525 74.0957 69.7273 74.6426 69.8771C75.196 70.0203 75.6777 70.1928 76.0879 70.3947L75.209 72.6993C74.7402 72.5105 74.304 72.3575 73.9004 72.2404C73.4967 72.1167 73.0931 72.0548 72.6895 72.0548C72.1686 72.0548 71.7357 72.1785 71.3906 72.4259C71.0456 72.6668 70.7884 73.0314 70.6191 73.5197C70.4499 74.0079 70.3652 74.6199 70.3652 75.3556C70.3652 76.0782 70.4564 76.6772 70.6387 77.1525C70.821 77.6277 71.0846 77.9825 71.4297 78.2169C71.7747 78.4448 72.1947 78.5587 72.6895 78.5587C73.3079 78.5587 73.8581 78.4773 74.3398 78.3146C74.8216 78.1453 75.2904 77.9109 75.7461 77.6115V80.1603C75.2904 80.4467 74.8118 80.6518 74.3105 80.7755C73.8158 80.9057 73.1875 80.9708 72.4258 80.9708ZM82.8848 78.5978C83.2103 78.5978 83.526 78.5652 83.832 78.5001C84.1445 78.435 84.4538 78.3536 84.7598 78.256V80.4728C84.4408 80.616 84.0436 80.7332 83.5684 80.8243C83.0996 80.922 82.5853 80.9708 82.0254 80.9708C81.3743 80.9708 80.7884 80.8667 80.2676 80.6583C79.7533 80.4435 79.3464 80.0756 79.0469 79.5548C78.7539 79.0275 78.6074 78.295 78.6074 77.3575V72.0939H77.1816V70.8341L78.8223 69.838L79.6816 67.5333H81.5859V69.8575H84.6426V72.0939H81.5859V77.3575C81.5859 77.7742 81.7031 78.0867 81.9375 78.295C82.1784 78.4969 82.4941 78.5978 82.8848 78.5978ZM96.8984 75.297C96.8984 76.2085 96.7747 77.0157 96.5273 77.7189C96.2865 78.422 95.9316 79.0177 95.4629 79.506C95.0007 79.9878 94.4408 80.3523 93.7832 80.5997C93.1322 80.8471 92.3965 80.9708 91.5762 80.9708C90.8079 80.9708 90.1016 80.8471 89.457 80.5997C88.819 80.3523 88.2624 79.9878 87.7871 79.506C87.3184 79.0177 86.9538 78.422 86.6934 77.7189C86.4395 77.0157 86.3125 76.2085 86.3125 75.297C86.3125 74.0861 86.5273 73.0607 86.957 72.2208C87.3867 71.381 87.9987 70.743 88.793 70.3068C89.5872 69.8706 90.5345 69.6525 91.6348 69.6525C92.6569 69.6525 93.5618 69.8706 94.3496 70.3068C95.1439 70.743 95.7656 71.381 96.2148 72.2208C96.6706 73.0607 96.8984 74.0861 96.8984 75.297ZM89.3496 75.297C89.3496 76.0131 89.4277 76.6154 89.584 77.1036C89.7402 77.5919 89.9844 77.9598 90.3164 78.2072C90.6484 78.4545 91.0814 78.5782 91.6152 78.5782C92.1426 78.5782 92.569 78.4545 92.8945 78.2072C93.2266 77.9598 93.4674 77.5919 93.6172 77.1036C93.7734 76.6154 93.8516 76.0131 93.8516 75.297C93.8516 74.5743 93.7734 73.9754 93.6172 73.5001C93.4674 73.0184 93.2266 72.657 92.8945 72.4161C92.5625 72.1753 92.1296 72.0548 91.5957 72.0548C90.8079 72.0548 90.235 72.325 89.877 72.8654C89.5254 73.4057 89.3496 74.2163 89.3496 75.297ZM105.453 69.6525C105.603 69.6525 105.775 69.6622 105.971 69.6818C106.173 69.6948 106.335 69.7143 106.459 69.7404L106.234 72.5333C106.137 72.5008 105.997 72.478 105.814 72.465C105.639 72.4454 105.486 72.4357 105.355 72.4357C104.971 72.4357 104.597 72.4845 104.232 72.5822C103.874 72.6798 103.552 72.8393 103.266 73.0607C102.979 73.2755 102.751 73.562 102.582 73.92C102.419 74.2716 102.338 74.7045 102.338 75.2189V80.7755H99.3594V69.8575H101.615L102.055 71.6935H102.201C102.416 71.3224 102.683 70.9838 103.002 70.6779C103.327 70.3654 103.695 70.118 104.105 69.9357C104.522 69.7469 104.971 69.6525 105.453 69.6525Z" fill="#D0D0D0"/>
</svg>
