<svg width="364" height="489" viewBox="0 0 364 489" fill="none" xmlns="http://www.w3.org/2000/svg">
<rect width="364" height="489" rx="10" fill="#151515"/>
<path d="M76.5945 195.224V209.77H73.9382L67.6101 200.615H67.5036V209.77H64.4283V195.224H67.1271L73.4055 204.372H73.5334V195.224H76.5945ZM84.0501 209.983C82.9279 209.983 81.962 209.755 81.1523 209.301C80.3474 208.842 79.7272 208.193 79.2915 207.355C78.8559 206.512 78.6381 205.515 78.6381 204.365C78.6381 203.243 78.8559 202.258 79.2915 201.41C79.7272 200.563 80.3403 199.902 81.131 199.429C81.9265 198.955 82.8593 198.718 83.9293 198.718C84.649 198.718 85.319 198.834 85.9393 199.066C86.5643 199.294 87.1088 199.637 87.5728 200.096C88.0415 200.556 88.4061 201.133 88.6665 201.829C88.927 202.521 89.0572 203.33 89.0572 204.258V205.089H79.8455V203.214H86.2092C86.2092 202.779 86.1145 202.393 85.9251 202.057C85.7357 201.72 85.4729 201.458 85.1367 201.268C84.8053 201.074 84.4194 200.977 83.979 200.977C83.5198 200.977 83.1126 201.084 82.7575 201.297C82.4071 201.505 82.1325 201.787 81.9336 202.142C81.7347 202.492 81.6329 202.883 81.6282 203.314V205.096C81.6282 205.636 81.7276 206.102 81.9265 206.495C82.1301 206.888 82.4165 207.191 82.7859 207.405C83.1552 207.618 83.5932 207.724 84.0998 207.724C84.436 207.724 84.7437 207.677 85.0231 207.582C85.3024 207.487 85.5415 207.345 85.7404 207.156C85.9393 206.967 86.0908 206.735 86.195 206.46L88.9933 206.645C88.8512 207.317 88.56 207.904 88.1197 208.406C87.6841 208.903 87.1206 209.291 86.4293 209.571C85.7428 209.845 84.9497 209.983 84.0501 209.983ZM96.0032 209.983C94.881 209.983 93.9151 209.755 93.1055 209.301C92.3005 208.842 91.6803 208.193 91.2447 207.355C90.8091 206.512 90.5913 205.515 90.5913 204.365C90.5913 203.243 90.8091 202.258 91.2447 201.41C91.6803 200.563 92.2934 199.902 93.0842 199.429C93.8796 198.955 94.8124 198.718 95.8825 198.718C96.6022 198.718 97.2721 198.834 97.8924 199.066C98.5174 199.294 99.0619 199.637 99.5259 200.096C99.9947 200.556 100.359 201.133 100.62 201.829C100.88 202.521 101.01 203.33 101.01 204.258V205.089H91.7987V203.214H98.1623C98.1623 202.779 98.0676 202.393 97.8782 202.057C97.6888 201.72 97.426 201.458 97.0898 201.268C96.7584 201.074 96.3725 200.977 95.9322 200.977C95.4729 200.977 95.0657 201.084 94.7106 201.297C94.3602 201.505 94.0856 201.787 93.8867 202.142C93.6879 202.492 93.5861 202.883 93.5813 203.314V205.096C93.5813 205.636 93.6808 206.102 93.8796 206.495C94.0832 206.888 94.3697 207.191 94.739 207.405C95.1083 207.618 95.5463 207.724 96.0529 207.724C96.3891 207.724 96.6969 207.677 96.9762 207.582C97.2556 207.487 97.4947 207.345 97.6935 207.156C97.8924 206.967 98.0439 206.735 98.1481 206.46L100.946 206.645C100.804 207.317 100.513 207.904 100.073 208.406C99.6372 208.903 99.0737 209.291 98.3825 209.571C97.6959 209.845 96.9028 209.983 96.0032 209.983ZM107.005 209.947C106.176 209.947 105.426 209.734 104.753 209.308C104.086 208.877 103.555 208.245 103.162 207.412C102.774 206.574 102.58 205.546 102.58 204.329C102.58 203.079 102.781 202.04 103.184 201.211C103.586 200.378 104.121 199.755 104.789 199.343C105.461 198.927 106.197 198.718 106.998 198.718C107.608 198.718 108.117 198.823 108.525 199.031C108.936 199.235 109.268 199.49 109.519 199.798C109.775 200.101 109.969 200.399 110.101 200.693H110.194V195.224H113.212V209.77H110.229V208.022H110.101C109.959 208.325 109.758 208.626 109.498 208.924C109.242 209.218 108.908 209.462 108.496 209.656C108.089 209.85 107.592 209.947 107.005 209.947ZM107.963 207.539C108.451 207.539 108.863 207.407 109.199 207.142C109.54 206.872 109.801 206.495 109.98 206.012C110.165 205.53 110.257 204.964 110.257 204.315C110.257 203.666 110.167 203.103 109.988 202.625C109.808 202.146 109.547 201.777 109.206 201.517C108.865 201.256 108.451 201.126 107.963 201.126C107.466 201.126 107.047 201.261 106.706 201.531C106.365 201.801 106.107 202.175 105.932 202.653C105.757 203.131 105.669 203.685 105.669 204.315C105.669 204.95 105.757 205.511 105.932 205.998C106.112 206.481 106.37 206.86 106.706 207.135C107.047 207.405 107.466 207.539 107.963 207.539ZM120.385 209.77V195.224H123.461V201.226H129.703V195.224H132.772V209.77H129.703V203.761H123.461V209.77H120.385ZM140.222 209.983C139.1 209.983 138.134 209.755 137.324 209.301C136.519 208.842 135.899 208.193 135.463 207.355C135.028 206.512 134.81 205.515 134.81 204.365C134.81 203.243 135.028 202.258 135.463 201.41C135.899 200.563 136.512 199.902 137.303 199.429C138.098 198.955 139.031 198.718 140.101 198.718C140.821 198.718 141.491 198.834 142.111 199.066C142.736 199.294 143.281 199.637 143.745 200.096C144.213 200.556 144.578 201.133 144.838 201.829C145.099 202.521 145.229 203.33 145.229 204.258V205.089H136.017V203.214H142.381C142.381 202.779 142.286 202.393 142.097 202.057C141.908 201.72 141.645 201.458 141.309 201.268C140.977 201.074 140.591 200.977 140.151 200.977C139.692 200.977 139.284 201.084 138.929 201.297C138.579 201.505 138.304 201.787 138.105 202.142C137.907 202.492 137.805 202.883 137.8 203.314V205.096C137.8 205.636 137.9 206.102 138.098 206.495C138.302 206.888 138.588 207.191 138.958 207.405C139.327 207.618 139.765 207.724 140.272 207.724C140.608 207.724 140.916 207.677 141.195 207.582C141.474 207.487 141.713 207.345 141.912 207.156C142.111 206.967 142.263 206.735 142.367 206.46L145.165 206.645C145.023 207.317 144.732 207.904 144.292 208.406C143.856 208.903 143.292 209.291 142.601 209.571C141.915 209.845 141.122 209.983 140.222 209.983ZM150.229 195.224V209.77H147.203V195.224H150.229ZM152.653 213.861V198.861H155.636V200.693H155.771C155.903 200.399 156.095 200.101 156.346 199.798C156.602 199.49 156.933 199.235 157.34 199.031C157.752 198.823 158.263 198.718 158.874 198.718C159.67 198.718 160.404 198.927 161.076 199.343C161.748 199.755 162.286 200.378 162.688 201.211C163.091 202.04 163.292 203.079 163.292 204.329C163.292 205.546 163.095 206.574 162.702 207.412C162.314 208.245 161.784 208.877 161.112 209.308C160.444 209.734 159.696 209.947 158.867 209.947C158.28 209.947 157.781 209.85 157.369 209.656C156.961 209.462 156.628 209.218 156.367 208.924C156.107 208.626 155.908 208.325 155.771 208.022H155.678V213.861H152.653ZM155.614 204.315C155.614 204.964 155.704 205.53 155.884 206.012C156.064 206.495 156.325 206.872 156.665 207.142C157.006 207.407 157.421 207.539 157.908 207.539C158.401 207.539 158.817 207.405 159.158 207.135C159.499 206.86 159.757 206.481 159.933 205.998C160.112 205.511 160.202 204.95 160.202 204.315C160.202 203.685 160.115 203.131 159.94 202.653C159.764 202.175 159.506 201.801 159.165 201.531C158.825 201.261 158.406 201.126 157.908 201.126C157.416 201.126 156.999 201.256 156.658 201.517C156.322 201.777 156.064 202.146 155.884 202.625C155.704 203.103 155.614 203.666 155.614 204.315ZM167.908 205.409V205.167C167.913 204.339 167.987 203.678 168.129 203.186C168.275 202.693 168.488 202.296 168.768 201.993C169.047 201.69 169.383 201.415 169.776 201.169C170.07 200.979 170.333 200.783 170.565 200.579C170.797 200.376 170.981 200.151 171.119 199.905C171.256 199.654 171.325 199.374 171.325 199.066C171.325 198.74 171.246 198.453 171.09 198.207C170.934 197.961 170.723 197.771 170.458 197.639C170.198 197.506 169.909 197.44 169.592 197.44C169.284 197.44 168.993 197.509 168.718 197.646C168.443 197.779 168.219 197.977 168.043 198.243C167.868 198.503 167.773 198.827 167.759 199.216H164.862C164.885 198.269 165.112 197.487 165.543 196.872C165.974 196.252 166.545 195.79 167.255 195.487C167.965 195.179 168.749 195.025 169.606 195.025C170.548 195.025 171.381 195.182 172.106 195.494C172.83 195.802 173.398 196.249 173.81 196.836C174.222 197.423 174.428 198.131 174.428 198.96C174.428 199.514 174.336 200.006 174.151 200.437C173.971 200.863 173.718 201.242 173.391 201.574C173.065 201.9 172.679 202.196 172.234 202.461C171.86 202.684 171.552 202.916 171.31 203.157C171.074 203.399 170.896 203.678 170.778 203.995C170.664 204.313 170.605 204.703 170.6 205.167V205.409H167.908ZM169.315 209.954C168.841 209.954 168.436 209.789 168.1 209.457C167.769 209.121 167.605 208.718 167.61 208.25C167.605 207.786 167.769 207.388 168.1 207.057C168.436 206.725 168.841 206.559 169.315 206.559C169.764 206.559 170.16 206.725 170.501 207.057C170.842 207.388 171.014 207.786 171.019 208.25C171.014 208.562 170.932 208.849 170.771 209.109C170.614 209.365 170.408 209.571 170.153 209.727C169.897 209.878 169.618 209.954 169.315 209.954ZM184.519 209.77L180.357 195.224H183.716L186.124 205.331H186.245L188.901 195.224H191.777L194.426 205.352H194.554L196.962 195.224H200.321L196.159 209.77H193.162L190.392 200.26H190.279L187.516 209.77H184.519ZM205.71 209.983C204.588 209.983 203.622 209.755 202.812 209.301C202.008 208.842 201.387 208.193 200.952 207.355C200.516 206.512 200.298 205.515 200.298 204.365C200.298 203.243 200.516 202.258 200.952 201.41C201.387 200.563 202 199.902 202.791 199.429C203.587 198.955 204.519 198.718 205.589 198.718C206.309 198.718 206.979 198.834 207.599 199.066C208.224 199.294 208.769 199.637 209.233 200.096C209.702 200.556 210.066 201.133 210.327 201.829C210.587 202.521 210.717 203.33 210.717 204.258V205.089H201.506V203.214H207.869C207.869 202.779 207.775 202.393 207.585 202.057C207.396 201.72 207.133 201.458 206.797 201.268C206.465 201.074 206.08 200.977 205.639 200.977C205.18 200.977 204.773 201.084 204.418 201.297C204.067 201.505 203.793 201.787 203.594 202.142C203.395 202.492 203.293 202.883 203.288 203.314V205.096C203.288 205.636 203.388 206.102 203.587 206.495C203.79 206.888 204.077 207.191 204.446 207.405C204.815 207.618 205.253 207.724 205.76 207.724C206.096 207.724 206.404 207.677 206.683 207.582C206.963 207.487 207.202 207.345 207.401 207.156C207.599 206.967 207.751 206.735 207.855 206.46L210.653 206.645C210.511 207.317 210.22 207.904 209.78 208.406C209.344 208.903 208.781 209.291 208.089 209.571C207.403 209.845 206.61 209.983 205.71 209.983ZM219.885 209.77H216.589L221.61 195.224H225.574L230.588 209.77H227.292L223.649 198.548H223.535L219.885 209.77ZM219.679 204.052H227.463V206.453H219.679V204.052ZM232.282 209.77V198.861H235.215V200.764H235.328C235.527 200.087 235.861 199.575 236.33 199.23C236.799 198.879 237.338 198.704 237.949 198.704C238.101 198.704 238.264 198.714 238.439 198.733C238.614 198.752 238.768 198.778 238.901 198.811V201.495C238.759 201.453 238.562 201.415 238.311 201.382C238.06 201.349 237.831 201.332 237.623 201.332C237.177 201.332 236.78 201.429 236.429 201.623C236.084 201.813 235.809 202.078 235.605 202.419C235.407 202.76 235.307 203.153 235.307 203.598V209.77H232.282ZM244.929 209.983C243.807 209.983 242.841 209.755 242.031 209.301C241.226 208.842 240.606 208.193 240.17 207.355C239.735 206.512 239.517 205.515 239.517 204.365C239.517 203.243 239.735 202.258 240.17 201.41C240.606 200.563 241.219 199.902 242.01 199.429C242.805 198.955 243.738 198.718 244.808 198.718C245.528 198.718 246.198 198.834 246.818 199.066C247.443 199.294 247.988 199.637 248.452 200.096C248.92 200.556 249.285 201.133 249.545 201.829C249.806 202.521 249.936 203.33 249.936 204.258V205.089H240.724V203.214H247.088C247.088 202.779 246.993 202.393 246.804 202.057C246.615 201.72 246.352 201.458 246.016 201.268C245.684 201.074 245.298 200.977 244.858 200.977C244.399 200.977 243.991 201.084 243.636 201.297C243.286 201.505 243.011 201.787 242.812 202.142C242.614 202.492 242.512 202.883 242.507 203.314V205.096C242.507 205.636 242.607 206.102 242.805 206.495C243.009 206.888 243.295 207.191 243.665 207.405C244.034 207.618 244.472 207.724 244.979 207.724C245.315 207.724 245.623 207.677 245.902 207.582C246.181 207.487 246.42 207.345 246.619 207.156C246.818 206.967 246.97 206.735 247.074 206.46L249.872 206.645C249.73 207.317 249.439 207.904 248.999 208.406C248.563 208.903 248 209.291 247.308 209.571C246.622 209.845 245.829 209.983 244.929 209.983ZM256.596 209.77V195.224H259.672V201.226H265.914V195.224H268.983V209.77H265.914V203.761H259.672V209.77H256.596ZM276.433 209.983C275.311 209.983 274.345 209.755 273.535 209.301C272.73 208.842 272.11 208.193 271.674 207.355C271.239 206.512 271.021 205.515 271.021 204.365C271.021 203.243 271.239 202.258 271.674 201.41C272.11 200.563 272.723 199.902 273.514 199.429C274.309 198.955 275.242 198.718 276.312 198.718C277.032 198.718 277.702 198.834 278.322 199.066C278.947 199.294 279.492 199.637 279.956 200.096C280.424 200.556 280.789 201.133 281.049 201.829C281.31 202.521 281.44 203.33 281.44 204.258V205.089H272.228V203.214H278.592C278.592 202.779 278.497 202.393 278.308 202.057C278.118 201.72 277.856 201.458 277.52 201.268C277.188 201.074 276.802 200.977 276.362 200.977C275.903 200.977 275.495 201.084 275.14 201.297C274.79 201.505 274.515 201.787 274.316 202.142C274.118 202.492 274.016 202.883 274.011 203.314V205.096C274.011 205.636 274.11 206.102 274.309 206.495C274.513 206.888 274.799 207.191 275.169 207.405C275.538 207.618 275.976 207.724 276.483 207.724C276.819 207.724 277.127 207.677 277.406 207.582C277.685 207.487 277.924 207.345 278.123 207.156C278.322 206.967 278.474 206.735 278.578 206.46L281.376 206.645C281.234 207.317 280.943 207.904 280.502 208.406C280.067 208.903 279.503 209.291 278.812 209.571C278.126 209.845 277.333 209.983 276.433 209.983ZM283.414 209.77V198.861H286.348V200.764H286.461C286.66 200.087 286.994 199.575 287.463 199.23C287.931 198.879 288.471 198.704 289.082 198.704C289.234 198.704 289.397 198.714 289.572 198.733C289.747 198.752 289.901 198.778 290.034 198.811V201.495C289.892 201.453 289.695 201.415 289.444 201.382C289.193 201.349 288.964 201.332 288.755 201.332C288.31 201.332 287.913 201.429 287.562 201.623C287.217 201.813 286.942 202.078 286.738 202.419C286.539 202.76 286.44 203.153 286.44 203.598V209.77H283.414ZM296.062 209.983C294.94 209.983 293.974 209.755 293.164 209.301C292.359 208.842 291.739 208.193 291.303 207.355C290.868 206.512 290.65 205.515 290.65 204.365C290.65 203.243 290.868 202.258 291.303 201.41C291.739 200.563 292.352 199.902 293.143 199.429C293.938 198.955 294.871 198.718 295.941 198.718C296.661 198.718 297.331 198.834 297.951 199.066C298.576 199.294 299.121 199.637 299.585 200.096C300.053 200.556 300.418 201.133 300.678 201.829C300.939 202.521 301.069 203.33 301.069 204.258V205.089H291.857V203.214H298.221C298.221 202.779 298.126 202.393 297.937 202.057C297.747 201.72 297.485 201.458 297.148 201.268C296.817 201.074 296.431 200.977 295.991 200.977C295.531 200.977 295.124 201.084 294.769 201.297C294.419 201.505 294.144 201.787 293.945 202.142C293.746 202.492 293.645 202.883 293.64 203.314V205.096C293.64 205.636 293.739 206.102 293.938 206.495C294.142 206.888 294.428 207.191 294.798 207.405C295.167 207.618 295.605 207.724 296.112 207.724C296.448 207.724 296.755 207.677 297.035 207.582C297.314 207.487 297.553 207.345 297.752 207.156C297.951 206.967 298.103 206.735 298.207 206.46L301.005 206.645C300.863 207.317 300.572 207.904 300.131 208.406C299.696 208.903 299.132 209.291 298.441 209.571C297.754 209.845 296.961 209.983 296.062 209.983ZM125.613 232.76V230.224H137.559V232.76H133.105V244.77H130.066V232.76H125.613ZM142.816 244.983C141.713 244.983 140.759 244.748 139.954 244.28C139.154 243.806 138.536 243.148 138.1 242.305C137.665 241.458 137.447 240.475 137.447 239.358C137.447 238.231 137.665 237.246 138.1 236.403C138.536 235.556 139.154 234.897 139.954 234.429C140.759 233.955 141.713 233.718 142.816 233.718C143.919 233.718 144.871 233.955 145.671 234.429C146.476 234.897 147.096 235.556 147.532 236.403C147.968 237.246 148.185 238.231 148.185 239.358C148.185 240.475 147.968 241.458 147.532 242.305C147.096 243.148 146.476 243.806 145.671 244.28C144.871 244.748 143.919 244.983 142.816 244.983ZM142.83 242.639C143.332 242.639 143.751 242.497 144.087 242.213C144.424 241.924 144.677 241.531 144.847 241.034C145.022 240.537 145.11 239.971 145.11 239.336C145.11 238.702 145.022 238.136 144.847 237.639C144.677 237.142 144.424 236.749 144.087 236.46C143.751 236.171 143.332 236.027 142.83 236.027C142.324 236.027 141.897 236.171 141.552 236.46C141.211 236.749 140.953 237.142 140.778 237.639C140.607 238.136 140.522 238.702 140.522 239.336C140.522 239.971 140.607 240.537 140.778 241.034C140.953 241.531 141.211 241.924 141.552 242.213C141.897 242.497 142.324 242.639 142.83 242.639ZM154.838 244.77V230.224H157.914V236.226H164.157V230.224H167.225V244.77H164.157V238.761H157.914V244.77H154.838ZM174.675 244.983C173.553 244.983 172.587 244.755 171.777 244.301C170.972 243.842 170.352 243.193 169.917 242.355C169.481 241.512 169.263 240.515 169.263 239.365C169.263 238.243 169.481 237.258 169.917 236.41C170.352 235.563 170.965 234.902 171.756 234.429C172.551 233.955 173.484 233.718 174.554 233.718C175.274 233.718 175.944 233.834 176.564 234.066C177.189 234.294 177.734 234.637 178.198 235.096C178.667 235.556 179.031 236.133 179.292 236.829C179.552 237.521 179.682 238.33 179.682 239.258V240.089H170.471V238.214H176.834C176.834 237.779 176.739 237.393 176.55 237.057C176.361 236.72 176.098 236.458 175.762 236.268C175.43 236.074 175.044 235.977 174.604 235.977C174.145 235.977 173.738 236.084 173.382 236.297C173.032 236.505 172.757 236.787 172.559 237.142C172.36 237.492 172.258 237.883 172.253 238.314V240.096C172.253 240.636 172.353 241.102 172.551 241.495C172.755 241.888 173.042 242.191 173.411 242.405C173.78 242.618 174.218 242.724 174.725 242.724C175.061 242.724 175.369 242.677 175.648 242.582C175.927 242.487 176.167 242.345 176.365 242.156C176.564 241.967 176.716 241.735 176.82 241.46L179.618 241.645C179.476 242.317 179.185 242.904 178.745 243.406C178.309 243.903 177.746 244.291 177.054 244.571C176.368 244.845 175.575 244.983 174.675 244.983ZM184.682 230.224V244.77H181.657V230.224H184.682ZM187.106 248.861V233.861H190.089V235.693H190.224C190.356 235.399 190.548 235.101 190.799 234.798C191.055 234.49 191.386 234.235 191.793 234.031C192.205 233.823 192.717 233.718 193.327 233.718C194.123 233.718 194.857 233.927 195.529 234.343C196.201 234.755 196.739 235.378 197.141 236.211C197.544 237.04 197.745 238.079 197.745 239.329C197.745 240.546 197.549 241.574 197.156 242.412C196.767 243.245 196.237 243.877 195.565 244.308C194.897 244.734 194.149 244.947 193.32 244.947C192.733 244.947 192.234 244.85 191.822 244.656C191.415 244.462 191.081 244.218 190.82 243.924C190.56 243.626 190.361 243.325 190.224 243.022H190.131V248.861H187.106ZM190.067 239.315C190.067 239.964 190.157 240.53 190.337 241.012C190.517 241.495 190.778 241.872 191.119 242.142C191.46 242.407 191.874 242.539 192.362 242.539C192.854 242.539 193.271 242.405 193.612 242.135C193.952 241.86 194.21 241.481 194.386 240.998C194.566 240.511 194.656 239.95 194.656 239.315C194.656 238.685 194.568 238.131 194.393 237.653C194.218 237.175 193.96 236.801 193.619 236.531C193.278 236.261 192.859 236.126 192.362 236.126C191.869 236.126 191.452 236.256 191.112 236.517C190.775 236.777 190.517 237.146 190.337 237.625C190.157 238.103 190.067 238.666 190.067 239.315ZM203.596 230.224H207.04L210.357 236.488H210.499L213.816 230.224H217.26L211.955 239.628V244.77H208.901V239.628L203.596 230.224ZM221.527 244.983C220.424 244.983 219.47 244.748 218.665 244.28C217.865 243.806 217.247 243.148 216.811 242.305C216.375 241.458 216.158 240.475 216.158 239.358C216.158 238.231 216.375 237.246 216.811 236.403C217.247 235.556 217.865 234.897 218.665 234.429C219.47 233.955 220.424 233.718 221.527 233.718C222.63 233.718 223.582 233.955 224.382 234.429C225.187 234.897 225.807 235.556 226.243 236.403C226.679 237.246 226.896 238.231 226.896 239.358C226.896 240.475 226.679 241.458 226.243 242.305C225.807 243.148 225.187 243.806 224.382 244.28C223.582 244.748 222.63 244.983 221.527 244.983ZM221.541 242.639C222.043 242.639 222.462 242.497 222.798 242.213C223.134 241.924 223.388 241.531 223.558 241.034C223.733 240.537 223.821 239.971 223.821 239.336C223.821 238.702 223.733 238.136 223.558 237.639C223.388 237.142 223.134 236.749 222.798 236.46C222.462 236.171 222.043 236.027 221.541 236.027C221.035 236.027 220.608 236.171 220.263 236.46C219.922 236.749 219.664 237.142 219.489 237.639C219.318 238.136 219.233 238.702 219.233 239.336C219.233 239.971 219.318 240.537 219.489 241.034C219.664 241.531 219.922 241.924 220.263 242.213C220.608 242.497 221.035 242.639 221.541 242.639ZM235.859 240.125V233.861H238.885V244.77H235.98V242.788H235.866C235.62 243.427 235.211 243.941 234.638 244.329C234.07 244.718 233.376 244.912 232.557 244.912C231.828 244.912 231.186 244.746 230.632 244.414C230.078 244.083 229.645 243.612 229.332 243.001C229.025 242.39 228.868 241.659 228.864 240.807V233.861H231.889V240.267C231.894 240.911 232.067 241.42 232.408 241.794C232.749 242.168 233.205 242.355 233.778 242.355C234.143 242.355 234.484 242.272 234.801 242.106C235.118 241.936 235.374 241.685 235.568 241.353C235.767 241.022 235.864 240.612 235.859 240.125Z" fill="white"/>
<path d="M249.047 98.3935C248.34 96.2511 247.671 94.4412 247.151 92.5574C246.817 91.3754 246.148 91.043 244.996 91.0799C241.353 91.2277 237.674 91.043 234.069 91.4863C230.463 91.9295 228.01 90.8583 226.375 87.6448C225.892 86.6845 225.074 85.8349 224.368 84.9854C223.402 83.8403 223.216 82.6953 223.773 81.2547C225.372 77.1917 226.747 73.0547 228.345 68.9547C228.865 67.625 228.605 66.8124 227.416 66.0367C225.223 64.5592 223.179 62.9709 221.06 61.4935C218.087 59.4619 218.905 59.3142 215.931 61.5304C212.661 63.9682 209.39 66.3691 206.156 68.8809C205.116 69.6935 204.112 69.8043 202.886 69.361C200.916 68.6223 198.946 67.8836 196.902 67.4403C195.155 67.034 194.338 66.0367 193.892 64.4115C192.702 60.2745 191.364 56.1745 190.175 52.0376C189.84 50.8556 189.246 50.2646 188.019 50.2277C184.972 50.1908 181.961 50.1908 178.951 50.043C177.278 49.9691 176.349 50.5601 175.866 52.2223C174.751 56.2484 173.413 60.2007 172.261 64.2268C171.815 65.8151 171.071 66.7385 169.362 67.1079C167.206 67.5881 165.05 68.2529 163.006 69.0655C161.594 69.6196 160.553 69.361 159.438 68.5115C155.796 65.7412 152.116 63.0448 148.511 60.2376C147.545 59.4989 146.801 59.4989 145.872 60.2007C143.271 62.0845 140.632 63.9313 137.993 65.7043C136.878 66.443 136.841 67.2187 137.287 68.3637C138.922 72.6115 140.483 76.8962 141.933 81.1809C142.193 81.9565 141.933 83.1385 141.487 83.8403C140.149 85.9088 138.513 87.7926 137.138 89.8241C136.321 91.0061 135.354 91.4863 133.905 91.4124C129.333 91.2277 124.762 91.1169 120.153 91.0799C119.521 91.0799 118.518 91.3754 118.332 91.8187C117.477 93.8872 116.845 96.0295 116.028 98.3935C117.031 98.3935 117.7 98.3935 118.406 98.3935C125.208 98.3935 132.046 98.2457 138.848 98.4673C141.524 98.5412 143.308 98.0241 144.2 95.3646C144.497 94.5151 145.166 93.7763 145.649 93.0376C156.874 75.825 179.88 68.8808 198.872 76.8592C208.721 80.9962 216.117 87.7187 221.209 97.0637C221.506 97.6547 222.324 98.3565 222.881 98.3565C231.467 98.4304 240.09 98.3935 249.047 98.3935Z" fill="white"/>
<path d="M249.047 98.3935C240.052 98.3935 231.467 98.4304 222.844 98.3196C222.287 98.3196 221.469 97.6178 221.172 97.0268C216.08 87.6818 208.684 80.9592 198.835 76.8223C179.88 68.8809 156.874 75.825 145.575 93.0007C145.055 93.7764 144.386 94.4782 144.126 95.3277C143.234 97.9872 141.45 98.5412 138.774 98.4304C131.972 98.2088 125.171 98.3565 118.332 98.3565C117.663 98.3565 116.994 98.3565 115.953 98.3565C116.734 96.0295 117.366 93.8502 118.258 91.7818C118.444 91.3385 119.447 91.043 120.079 91.043C124.65 91.08 129.259 91.1908 133.83 91.3755C135.317 91.4493 136.246 90.9691 137.064 89.7872C138.476 87.7556 140.074 85.8718 141.412 83.8034C141.858 83.1016 142.119 81.9196 141.858 81.1439C140.409 76.8223 138.811 72.5746 137.213 68.3268C136.767 67.1818 136.841 66.4061 137.919 65.6673C140.595 63.8944 143.196 62.0106 145.798 60.1637C146.727 59.4989 147.471 59.4619 148.437 60.2007C152.042 63.0079 155.759 65.7043 159.364 68.4746C160.479 69.3241 161.52 69.6196 162.932 69.0286C164.976 68.216 167.132 67.5511 169.287 67.0709C170.997 66.7016 171.74 65.7782 172.186 64.1899C173.301 60.1637 174.639 56.2115 175.792 52.1854C176.275 50.5232 177.204 49.9322 178.876 50.0061C181.887 50.1538 184.934 50.1538 187.945 50.1908C189.209 50.1908 189.766 50.7818 190.101 52.0007C191.29 56.1376 192.628 60.2376 193.817 64.3746C194.263 65.9998 195.081 66.9971 196.828 67.4034C198.872 67.8836 200.842 68.5854 202.812 69.3241C204.038 69.8043 205.042 69.6565 206.082 68.8439C209.316 66.3691 212.586 63.9313 215.857 61.4935C218.83 59.2773 218.05 59.425 220.986 61.4565C223.105 62.934 225.186 64.5223 227.342 65.9259C228.531 66.7016 228.791 67.5142 228.271 68.8439C226.71 72.907 225.297 77.0439 223.699 81.1439C223.142 82.5845 223.328 83.7295 224.294 84.8746C225 85.7241 225.781 86.5737 226.301 87.534C227.936 90.7475 230.389 91.8187 233.994 91.3755C237.599 90.9322 241.279 91.1169 244.921 90.9691C246.073 90.9322 246.742 91.3016 247.077 92.4466C247.709 94.4412 248.378 96.2511 249.047 98.3935Z" fill="#FF3811"/>
<path d="M211.285 110.878C206.9 106.556 202.477 102.198 198.054 97.8024C197.274 97.0268 196.79 97.5439 196.233 98.0979C194.152 100.203 192.07 102.309 189.952 104.34C188.614 105.633 187.164 106.889 185.752 108.145C185.863 108.329 185.975 108.477 186.086 108.662C190.212 107.849 193.817 108.699 196.79 111.617C199.727 114.535 200.507 118.192 199.764 122.144C203.629 118.376 207.383 114.683 211.285 110.878Z" fill="white"/>
<path d="M179.248 108.44C178.691 107.812 178.43 107.406 178.096 107.074C175.123 104.119 172.075 101.238 169.176 98.2087C168.135 97.1375 167.504 97.1745 166.5 98.2087C162.635 102.124 158.769 105.965 154.793 109.77C153.789 110.73 154.012 111.321 154.867 112.171C157.989 115.237 161.074 118.339 164.196 121.405C164.456 121.664 164.828 121.811 165.274 122.107C163.973 113.242 170.217 107.147 179.248 108.44Z" fill="white"/>
<path d="M164.79 93.9609C160.07 98.7257 155.499 103.38 150.964 107.96C151.299 108.403 151.745 109.031 152.154 109.548C156.948 104.783 161.557 100.24 166.463 95.4014C165.942 94.9582 165.348 94.4411 164.79 93.9609Z" fill="white"/>
<path d="M217.53 104.784C217.418 104.599 217.344 104.377 217.195 104.193C212.995 100.019 208.833 95.8818 204.633 91.7079C203.927 91.0061 203.406 90.9692 202.626 91.7079C201.808 92.5205 201.957 93.0746 202.7 93.8133C206.454 97.4701 210.134 101.164 213.85 104.857C214.445 105.448 215.077 106.002 215.932 106.815C216.489 106.113 216.935 105.559 217.53 104.784Z" fill="white"/>
<path d="M214.556 107.738C210.245 103.454 206.008 99.2799 201.771 95.0321C201.065 94.3303 200.47 93.7763 199.504 94.8105C198.575 95.8078 199.095 96.3988 199.838 97.1006C203.629 100.831 207.383 104.562 211.137 108.292C212.809 109.992 212.847 109.992 214.556 107.738Z" fill="white"/>
<path d="M163.229 92.5943C161.557 90.5627 161.594 90.5627 159.81 92.2988C156.168 95.9186 152.525 99.5015 148.92 103.121C147.173 104.857 147.21 105.079 149.292 106.261C153.938 101.718 158.546 97.1744 163.229 92.5943Z" fill="white"/>
<path d="M211.285 110.878C207.383 114.719 203.629 118.376 199.764 122.181C200.507 118.228 199.727 114.609 196.79 111.654C193.817 108.699 190.175 107.886 186.086 108.699C185.975 108.514 185.863 108.366 185.752 108.182C187.164 106.926 188.577 105.707 189.952 104.377C192.07 102.309 194.152 100.24 196.233 98.1348C196.79 97.5807 197.274 97.0636 198.054 97.8393C202.477 102.161 206.9 106.519 211.285 110.878ZM201.139 104.894C200.358 105.928 199.429 106.63 199.504 107.147C199.615 107.775 200.581 108.292 201.176 108.847C201.696 108.292 202.588 107.738 202.626 107.147C202.7 106.556 201.882 105.892 201.139 104.894Z" fill="white"/>
<path d="M179.248 108.44C170.18 107.147 163.973 113.242 165.274 122.144C164.828 121.848 164.456 121.701 164.196 121.442C161.074 118.376 157.989 115.274 154.867 112.208C154.012 111.358 153.789 110.767 154.793 109.807C158.732 106.002 162.635 102.124 166.5 98.2456C167.504 97.2114 168.135 97.1745 169.176 98.2456C172.075 101.274 175.123 104.156 178.096 107.111C178.43 107.406 178.728 107.812 179.248 108.44ZM166.277 107.258C165.236 106.409 164.567 105.485 164.084 105.559C163.415 105.67 162.858 106.593 162.263 107.147C162.821 107.701 163.304 108.588 163.936 108.699C164.456 108.773 165.162 107.96 166.277 107.258Z" fill="white"/>
<path d="M164.79 93.9609C165.348 94.4411 165.942 94.9212 166.463 95.4014C161.594 100.24 156.985 104.783 152.154 109.548C151.745 108.994 151.262 108.366 150.964 107.96C155.499 103.38 160.107 98.7257 164.79 93.9609Z" fill="white"/>
<path d="M217.529 104.783C216.935 105.559 216.489 106.113 215.931 106.852C215.076 106.039 214.445 105.485 213.85 104.894C210.133 101.201 206.454 97.5069 202.7 93.8502C201.919 93.1114 201.771 92.5574 202.626 91.7448C203.369 91.006 203.926 91.043 204.633 91.7448C208.795 95.9186 212.995 100.056 217.195 104.229C217.343 104.34 217.418 104.599 217.529 104.783Z" fill="white"/>
<path d="M214.556 107.738C212.884 109.992 212.847 109.992 211.137 108.292C207.383 104.562 203.629 100.794 199.838 97.1006C199.095 96.3988 198.575 95.8078 199.504 94.8105C200.47 93.7763 201.065 94.3303 201.771 95.0321C206.008 99.2799 210.245 103.454 214.556 107.738Z" fill="white"/>
<path d="M163.229 92.5942C158.546 97.2114 153.938 101.718 149.292 106.298C147.21 105.116 147.173 104.894 148.92 103.158C152.562 99.5384 156.205 95.9555 159.81 92.3357C161.594 90.5627 161.594 90.5627 163.229 92.5942Z" fill="white"/>
<path d="M201.139 104.894C201.845 105.929 202.663 106.557 202.626 107.148C202.589 107.738 201.697 108.293 201.176 108.847C200.582 108.293 199.615 107.812 199.504 107.148C199.429 106.63 200.359 105.929 201.139 104.894Z" fill="white"/>
<path d="M166.277 107.258C165.162 107.96 164.493 108.773 163.898 108.662C163.266 108.588 162.783 107.665 162.226 107.111C162.82 106.556 163.378 105.633 164.047 105.522C164.567 105.485 165.236 106.446 166.277 107.258Z" fill="white"/>
<path d="M122.519 141.005C121.018 141.005 119.855 141.572 119.031 142.704C118.208 143.828 117.796 145.398 117.796 147.414C117.796 151.609 119.37 153.707 122.519 153.707C123.84 153.707 125.44 153.377 127.319 152.716V156.062C125.775 156.705 124.05 157.027 122.146 157.027C119.409 157.027 117.316 156.199 115.866 154.543C114.416 152.879 113.691 150.494 113.691 147.388C113.691 145.432 114.047 143.721 114.759 142.254C115.471 140.778 116.492 139.65 117.822 138.869C119.16 138.08 120.726 137.685 122.519 137.685C124.346 137.685 126.182 138.127 128.027 139.011L126.74 142.254C126.036 141.919 125.329 141.627 124.616 141.379C123.904 141.13 123.205 141.005 122.519 141.005ZM140.162 156.77L139.403 154.814H139.3C138.639 155.646 137.957 156.225 137.254 156.551C136.559 156.868 135.649 157.027 134.525 157.027C133.144 157.027 132.055 156.632 131.257 155.843C130.467 155.054 130.073 153.93 130.073 152.471C130.073 150.944 130.605 149.82 131.669 149.1C132.741 148.371 134.354 147.967 136.507 147.89L139.004 147.813V147.182C139.004 145.724 138.257 144.995 136.765 144.995C135.615 144.995 134.264 145.342 132.711 146.037L131.411 143.386C133.067 142.52 134.903 142.086 136.919 142.086C138.849 142.086 140.329 142.507 141.359 143.348C142.388 144.188 142.903 145.467 142.903 147.182V156.77H140.162ZM139.004 150.104L137.485 150.155C136.344 150.189 135.495 150.395 134.937 150.773C134.38 151.15 134.101 151.725 134.101 152.497C134.101 153.604 134.736 154.157 136.005 154.157C136.915 154.157 137.64 153.896 138.18 153.372C138.729 152.849 139.004 152.154 139.004 151.288V150.104ZM154.987 142.112C155.519 142.112 155.96 142.151 156.312 142.228L156.016 145.908C155.699 145.823 155.313 145.78 154.858 145.78C153.605 145.78 152.627 146.101 151.924 146.745C151.229 147.388 150.882 148.289 150.882 149.447V156.77H146.957V142.382H149.929L150.508 144.802H150.701C151.148 143.995 151.748 143.348 152.503 142.859C153.267 142.361 154.094 142.112 154.987 142.112ZM181.689 147.182C181.689 150.279 180.806 152.652 179.038 154.299C177.28 155.946 174.736 156.77 171.407 156.77H166.08V137.956H171.986C175.058 137.956 177.443 138.766 179.141 140.388C180.84 142.009 181.689 144.274 181.689 147.182ZM177.546 147.285C177.546 143.245 175.761 141.224 172.192 141.224H170.069V153.475H171.78C175.624 153.475 177.546 151.412 177.546 147.285ZM188.407 149.55C188.407 150.974 188.638 152.051 189.102 152.78C189.574 153.51 190.337 153.874 191.392 153.874C192.439 153.874 193.19 153.514 193.644 152.793C194.108 152.064 194.339 150.983 194.339 149.55C194.339 148.126 194.108 147.058 193.644 146.346C193.181 145.634 192.422 145.278 191.367 145.278C190.32 145.278 189.565 145.634 189.102 146.346C188.638 147.049 188.407 148.118 188.407 149.55ZM198.354 149.55C198.354 151.892 197.737 153.724 196.501 155.045C195.266 156.366 193.546 157.027 191.341 157.027C189.96 157.027 188.741 156.727 187.686 156.126C186.631 155.517 185.82 154.646 185.254 153.514C184.688 152.381 184.405 151.06 184.405 149.55C184.405 147.2 185.018 145.372 186.245 144.068C187.472 142.764 189.196 142.112 191.418 142.112C192.799 142.112 194.018 142.412 195.073 143.013C196.128 143.613 196.939 144.476 197.505 145.6C198.071 146.723 198.354 148.04 198.354 149.55ZM207.44 157.027C202.961 157.027 200.722 154.569 200.722 149.653C200.722 147.208 201.331 145.342 202.549 144.055C203.768 142.76 205.514 142.112 207.787 142.112C209.451 142.112 210.944 142.438 212.265 143.09L211.107 146.127C210.489 145.878 209.915 145.677 209.383 145.522C208.851 145.359 208.319 145.278 207.787 145.278C205.745 145.278 204.724 146.728 204.724 149.627C204.724 152.441 205.745 153.848 207.787 153.848C208.542 153.848 209.241 153.75 209.885 153.552C210.528 153.347 211.172 153.029 211.815 152.6V155.959C211.18 156.362 210.537 156.641 209.885 156.795C209.241 156.95 208.426 157.027 207.44 157.027ZM221.222 153.9C221.908 153.9 222.732 153.75 223.693 153.449V156.371C222.715 156.808 221.514 157.027 220.09 157.027C218.52 157.027 217.374 156.632 216.654 155.843C215.942 155.045 215.585 153.853 215.585 152.266V145.329H213.707V143.669L215.869 142.357L217.001 139.32H219.51V142.382H223.538V145.329H219.51V152.266C219.51 152.823 219.665 153.235 219.974 153.501C220.291 153.767 220.707 153.9 221.222 153.9ZM229.741 149.55C229.741 150.974 229.973 152.051 230.436 152.78C230.908 153.51 231.671 153.874 232.727 153.874C233.773 153.874 234.524 153.514 234.979 152.793C235.442 152.064 235.674 150.983 235.674 149.55C235.674 148.126 235.442 147.058 234.979 146.346C234.515 145.634 233.756 145.278 232.701 145.278C231.654 145.278 230.899 145.634 230.436 146.346C229.973 147.049 229.741 148.118 229.741 149.55ZM239.689 149.55C239.689 151.892 239.071 153.724 237.835 155.045C236.6 156.366 234.88 157.027 232.675 157.027C231.294 157.027 230.076 156.727 229.02 156.126C227.965 155.517 227.154 154.646 226.588 153.514C226.022 152.381 225.739 151.06 225.739 149.55C225.739 147.2 226.352 145.372 227.579 144.068C228.806 142.764 230.53 142.112 232.752 142.112C234.134 142.112 235.352 142.412 236.407 143.013C237.462 143.613 238.273 144.476 238.839 145.6C239.405 146.723 239.689 148.04 239.689 149.55ZM250.962 142.112C251.494 142.112 251.935 142.151 252.287 142.228L251.991 145.908C251.674 145.823 251.288 145.78 250.833 145.78C249.58 145.78 248.602 146.101 247.899 146.745C247.204 147.388 246.856 148.289 246.856 149.447V156.77H242.932V142.382H245.904L246.483 144.802H246.676C247.122 143.995 247.723 143.348 248.478 142.859C249.241 142.361 250.069 142.112 250.962 142.112Z" fill="white"/>
<rect x="47" y="285" width="270" height="126" rx="10" fill="white"/>
<path d="M105.25 319.547H102.14C102.083 319.144 101.967 318.787 101.792 318.474C101.616 318.157 101.391 317.887 101.117 317.665C100.842 317.442 100.525 317.272 100.165 317.153C99.81 317.035 99.4241 316.976 99.0075 316.976C98.2546 316.976 97.5988 317.163 97.0401 317.537C96.4814 317.906 96.0482 318.446 95.7404 319.156C95.4326 319.862 95.2788 320.719 95.2788 321.727C95.2788 322.764 95.4326 323.635 95.7404 324.341C96.0529 325.046 96.4885 325.579 97.0472 325.939C97.6059 326.299 98.2522 326.479 98.9862 326.479C99.3981 326.479 99.7792 326.424 100.13 326.315C100.485 326.206 100.8 326.048 101.074 325.839C101.349 325.626 101.576 325.368 101.756 325.065C101.941 324.762 102.069 324.417 102.14 324.028L105.25 324.043C105.17 324.71 104.969 325.354 104.647 325.974C104.329 326.59 103.901 327.142 103.361 327.629C102.826 328.112 102.187 328.496 101.444 328.78C100.705 329.059 99.8692 329.199 98.9364 329.199C97.6391 329.199 96.479 328.905 95.4563 328.318C94.4383 327.731 93.6334 326.881 93.0415 325.768C92.4544 324.656 92.1609 323.309 92.1609 321.727C92.1609 320.141 92.4592 318.792 93.0558 317.679C93.6523 316.566 94.462 315.719 95.4847 315.136C96.5075 314.549 97.658 314.256 98.9364 314.256C99.7792 314.256 100.56 314.374 101.28 314.611C102.005 314.848 102.646 315.193 103.205 315.648C103.764 316.098 104.218 316.649 104.569 317.303C104.924 317.956 105.151 318.704 105.25 319.547ZM110.51 329.206C109.814 329.206 109.193 329.085 108.649 328.844C108.104 328.598 107.673 328.235 107.356 327.757C107.044 327.274 106.887 326.673 106.887 325.953C106.887 325.347 106.999 324.838 107.221 324.426C107.444 324.014 107.747 323.683 108.13 323.432C108.514 323.181 108.949 322.991 109.437 322.864C109.93 322.736 110.446 322.646 110.985 322.594C111.62 322.527 112.131 322.466 112.52 322.409C112.908 322.348 113.19 322.258 113.365 322.139C113.54 322.021 113.627 321.846 113.627 321.614V321.571C113.627 321.121 113.485 320.773 113.201 320.527C112.922 320.281 112.524 320.158 112.008 320.158C111.464 320.158 111.03 320.278 110.708 320.52C110.386 320.757 110.173 321.055 110.069 321.415L107.271 321.188C107.413 320.525 107.692 319.952 108.109 319.469C108.526 318.981 109.063 318.607 109.721 318.347C110.384 318.081 111.151 317.949 112.022 317.949C112.628 317.949 113.208 318.02 113.762 318.162C114.321 318.304 114.816 318.524 115.247 318.822C115.682 319.121 116.026 319.504 116.277 319.973C116.528 320.437 116.653 320.993 116.653 321.642V329H113.784V327.487H113.699C113.523 327.828 113.289 328.129 112.995 328.389C112.702 328.645 112.349 328.846 111.937 328.993C111.525 329.135 111.049 329.206 110.51 329.206ZM111.376 327.118C111.821 327.118 112.214 327.03 112.555 326.855C112.896 326.675 113.163 326.434 113.358 326.131C113.552 325.828 113.649 325.484 113.649 325.101V323.943C113.554 324.005 113.424 324.062 113.258 324.114C113.097 324.161 112.915 324.206 112.711 324.249C112.508 324.286 112.304 324.322 112.1 324.355C111.897 324.384 111.712 324.41 111.547 324.433C111.191 324.485 110.881 324.568 110.616 324.682C110.351 324.795 110.145 324.949 109.998 325.143C109.851 325.333 109.778 325.57 109.778 325.854C109.778 326.266 109.927 326.58 110.225 326.798C110.529 327.011 110.912 327.118 111.376 327.118ZM119 329V318.091H121.934V319.994H122.047C122.246 319.317 122.58 318.806 123.049 318.46C123.517 318.11 124.057 317.935 124.668 317.935C124.819 317.935 124.983 317.944 125.158 317.963C125.333 317.982 125.487 318.008 125.62 318.041V320.726C125.478 320.683 125.281 320.645 125.03 320.612C124.779 320.579 124.55 320.562 124.341 320.562C123.896 320.562 123.498 320.66 123.148 320.854C122.802 321.043 122.528 321.308 122.324 321.649C122.125 321.99 122.026 322.383 122.026 322.828V329H119ZM137.026 329H131.87V314.455H137.069C138.532 314.455 139.791 314.746 140.847 315.328C141.903 315.906 142.715 316.737 143.283 317.821C143.856 318.905 144.142 320.203 144.142 321.713C144.142 323.228 143.856 324.53 143.283 325.619C142.715 326.708 141.898 327.544 140.833 328.126C139.772 328.709 138.503 329 137.026 329ZM134.945 326.365H136.898C137.807 326.365 138.572 326.204 139.192 325.882C139.817 325.555 140.286 325.051 140.598 324.369C140.916 323.683 141.074 322.797 141.074 321.713C141.074 320.638 140.916 319.76 140.598 319.078C140.286 318.396 139.819 317.894 139.199 317.572C138.579 317.25 137.814 317.089 136.905 317.089H134.945V326.365ZM151.293 329.213C150.189 329.213 149.235 328.979 148.43 328.51C147.63 328.036 147.012 327.378 146.577 326.536C146.141 325.688 145.923 324.705 145.923 323.588C145.923 322.461 146.141 321.476 146.577 320.634C147.012 319.786 147.63 319.128 148.43 318.659C149.235 318.186 150.189 317.949 151.293 317.949C152.396 317.949 153.348 318.186 154.148 318.659C154.953 319.128 155.573 319.786 156.009 320.634C156.444 321.476 156.662 322.461 156.662 323.588C156.662 324.705 156.444 325.688 156.009 326.536C155.573 327.378 154.953 328.036 154.148 328.51C153.348 328.979 152.396 329.213 151.293 329.213ZM151.307 326.869C151.809 326.869 152.228 326.727 152.564 326.443C152.9 326.154 153.153 325.761 153.324 325.264C153.499 324.767 153.587 324.201 153.587 323.567C153.587 322.932 153.499 322.366 153.324 321.869C153.153 321.372 152.9 320.979 152.564 320.69C152.228 320.402 151.809 320.257 151.307 320.257C150.8 320.257 150.374 320.402 150.028 320.69C149.688 320.979 149.429 321.372 149.254 321.869C149.084 322.366 148.999 322.932 148.999 323.567C148.999 324.201 149.084 324.767 149.254 325.264C149.429 325.761 149.688 326.154 150.028 326.443C150.374 326.727 150.8 326.869 151.307 326.869ZM163.558 329.213C162.441 329.213 161.48 328.976 160.675 328.503C159.875 328.025 159.259 327.362 158.828 326.514C158.402 325.667 158.189 324.691 158.189 323.588C158.189 322.471 158.404 321.491 158.835 320.648C159.271 319.8 159.889 319.14 160.689 318.666C161.489 318.188 162.441 317.949 163.544 317.949C164.496 317.949 165.329 318.122 166.044 318.467C166.759 318.813 167.325 319.298 167.741 319.923C168.158 320.548 168.388 321.282 168.43 322.125H165.575C165.495 321.58 165.282 321.143 164.936 320.811C164.595 320.475 164.148 320.307 163.594 320.307C163.125 320.307 162.715 320.435 162.365 320.69C162.019 320.941 161.75 321.308 161.555 321.791C161.361 322.274 161.264 322.859 161.264 323.545C161.264 324.241 161.359 324.833 161.548 325.321C161.742 325.809 162.015 326.18 162.365 326.436C162.715 326.692 163.125 326.82 163.594 326.82C163.939 326.82 164.25 326.749 164.524 326.607C164.804 326.464 165.033 326.259 165.213 325.989C165.398 325.714 165.518 325.385 165.575 325.001H168.43C168.383 325.835 168.156 326.569 167.749 327.203C167.346 327.833 166.79 328.325 166.08 328.68C165.369 329.036 164.529 329.213 163.558 329.213ZM176.17 318.091V320.364H169.6V318.091H176.17ZM171.092 315.477H174.118V325.648C174.118 325.927 174.16 326.145 174.245 326.301C174.331 326.453 174.449 326.559 174.6 326.621C174.757 326.682 174.937 326.713 175.14 326.713C175.282 326.713 175.424 326.701 175.566 326.678C175.708 326.649 175.817 326.628 175.893 326.614L176.369 328.865C176.217 328.912 176.004 328.967 175.73 329.028C175.455 329.095 175.121 329.135 174.728 329.149C173.999 329.178 173.36 329.08 172.811 328.858C172.266 328.635 171.842 328.29 171.539 327.821C171.236 327.352 171.087 326.76 171.092 326.045V315.477ZM182.953 329.213C181.85 329.213 180.895 328.979 180.091 328.51C179.29 328.036 178.672 327.378 178.237 326.536C177.801 325.688 177.583 324.705 177.583 323.588C177.583 322.461 177.801 321.476 178.237 320.634C178.672 319.786 179.29 319.128 180.091 318.659C180.895 318.186 181.85 317.949 182.953 317.949C184.056 317.949 185.008 318.186 185.808 318.659C186.613 319.128 187.233 319.786 187.669 320.634C188.104 321.476 188.322 322.461 188.322 323.588C188.322 324.705 188.104 325.688 187.669 326.536C187.233 327.378 186.613 328.036 185.808 328.51C185.008 328.979 184.056 329.213 182.953 329.213ZM182.967 326.869C183.469 326.869 183.888 326.727 184.224 326.443C184.56 326.154 184.814 325.761 184.984 325.264C185.159 324.767 185.247 324.201 185.247 323.567C185.247 322.932 185.159 322.366 184.984 321.869C184.814 321.372 184.56 320.979 184.224 320.69C183.888 320.402 183.469 320.257 182.967 320.257C182.46 320.257 182.034 320.402 181.689 320.69C181.348 320.979 181.09 321.372 180.914 321.869C180.744 322.366 180.659 322.932 180.659 323.567C180.659 324.201 180.744 324.767 180.914 325.264C181.09 325.761 181.348 326.154 181.689 326.443C182.034 326.727 182.46 326.869 182.967 326.869ZM190.289 329V318.091H193.223V319.994H193.336C193.535 319.317 193.869 318.806 194.338 318.46C194.806 318.11 195.346 317.935 195.957 317.935C196.109 317.935 196.272 317.944 196.447 317.963C196.622 317.982 196.776 318.008 196.909 318.041V320.726C196.767 320.683 196.57 320.645 196.319 320.612C196.068 320.579 195.839 320.562 195.63 320.562C195.185 320.562 194.788 320.66 194.437 320.854C194.092 321.043 193.817 321.308 193.613 321.649C193.414 321.99 193.315 322.383 193.315 322.828V329H190.289Z" fill="#FF3811"/>
<path d="M211.049 318.638C210.993 318.065 210.749 317.62 210.318 317.303C209.887 316.985 209.302 316.827 208.564 316.827C208.062 316.827 207.638 316.898 207.292 317.04C206.947 317.177 206.681 317.369 206.497 317.615C206.317 317.861 206.227 318.141 206.227 318.453C206.217 318.714 206.272 318.941 206.39 319.135C206.513 319.329 206.681 319.497 206.895 319.639C207.108 319.777 207.354 319.897 207.633 320.001C207.913 320.101 208.211 320.186 208.528 320.257L209.835 320.57C210.469 320.712 211.052 320.901 211.582 321.138C212.112 321.375 212.572 321.666 212.96 322.011C213.348 322.357 213.649 322.764 213.862 323.233C214.08 323.702 214.191 324.239 214.196 324.845C214.191 325.735 213.964 326.507 213.514 327.161C213.069 327.809 212.425 328.313 211.582 328.673C210.744 329.028 209.733 329.206 208.549 329.206C207.375 329.206 206.352 329.026 205.481 328.666C204.615 328.306 203.938 327.774 203.45 327.068C202.967 326.358 202.714 325.48 202.69 324.433H205.666C205.699 324.921 205.839 325.328 206.085 325.655C206.336 325.977 206.67 326.221 207.086 326.386C207.508 326.547 207.984 326.628 208.514 326.628C209.035 326.628 209.487 326.552 209.87 326.401C210.259 326.249 210.559 326.038 210.772 325.768C210.985 325.499 211.092 325.188 211.092 324.838C211.092 324.511 210.995 324.237 210.801 324.014C210.611 323.792 210.332 323.602 209.963 323.446C209.598 323.29 209.151 323.148 208.62 323.02L207.037 322.622C205.81 322.324 204.842 321.857 204.132 321.223C203.422 320.589 203.069 319.734 203.074 318.659C203.069 317.778 203.303 317.009 203.777 316.351C204.255 315.693 204.911 315.179 205.744 314.81C206.577 314.44 207.524 314.256 208.585 314.256C209.664 314.256 210.607 314.44 211.412 314.81C212.221 315.179 212.851 315.693 213.301 316.351C213.751 317.009 213.983 317.771 213.997 318.638H211.049ZM216.207 333.091V318.091H219.19V319.923H219.325C219.458 319.63 219.65 319.331 219.901 319.028C220.156 318.721 220.488 318.465 220.895 318.261C221.307 318.053 221.818 317.949 222.429 317.949C223.224 317.949 223.958 318.157 224.631 318.574C225.303 318.986 225.84 319.608 226.243 320.442C226.645 321.27 226.847 322.31 226.847 323.56C226.847 324.777 226.65 325.804 226.257 326.642C225.869 327.475 225.339 328.107 224.666 328.538C223.999 328.964 223.25 329.178 222.422 329.178C221.835 329.178 221.335 329.08 220.923 328.886C220.516 328.692 220.182 328.448 219.922 328.155C219.661 327.857 219.463 327.556 219.325 327.253H219.233V333.091H216.207ZM219.169 323.545C219.169 324.194 219.259 324.76 219.439 325.243C219.619 325.726 219.879 326.102 220.22 326.372C220.561 326.637 220.975 326.77 221.463 326.77C221.955 326.77 222.372 326.635 222.713 326.365C223.054 326.09 223.312 325.712 223.487 325.229C223.667 324.741 223.757 324.18 223.757 323.545C223.757 322.916 223.67 322.362 223.494 321.884C223.319 321.405 223.061 321.031 222.72 320.761C222.379 320.491 221.96 320.357 221.463 320.357C220.971 320.357 220.554 320.487 220.213 320.747C219.877 321.008 219.619 321.377 219.439 321.855C219.259 322.333 219.169 322.897 219.169 323.545ZM233.835 329.213C232.713 329.213 231.747 328.986 230.938 328.531C230.133 328.072 229.512 327.423 229.077 326.585C228.641 325.742 228.423 324.746 228.423 323.595C228.423 322.473 228.641 321.488 229.077 320.641C229.512 319.793 230.125 319.133 230.916 318.659C231.712 318.186 232.644 317.949 233.714 317.949C234.434 317.949 235.104 318.065 235.724 318.297C236.349 318.524 236.894 318.867 237.358 319.327C237.827 319.786 238.191 320.364 238.452 321.06C238.712 321.751 238.842 322.561 238.842 323.489V324.32H229.631V322.445H235.994C235.994 322.009 235.9 321.623 235.71 321.287C235.521 320.951 235.258 320.688 234.922 320.499C234.59 320.304 234.205 320.207 233.764 320.207C233.305 320.207 232.898 320.314 232.543 320.527C232.192 320.735 231.918 321.017 231.719 321.372C231.52 321.723 231.418 322.113 231.413 322.544V324.327C231.413 324.866 231.513 325.333 231.712 325.726C231.915 326.119 232.202 326.422 232.571 326.635C232.94 326.848 233.378 326.955 233.885 326.955C234.221 326.955 234.529 326.907 234.808 326.812C235.088 326.718 235.327 326.576 235.526 326.386C235.724 326.197 235.876 325.965 235.98 325.69L238.778 325.875C238.636 326.547 238.345 327.134 237.905 327.636C237.469 328.134 236.906 328.522 236.214 328.801C235.528 329.076 234.735 329.213 233.835 329.213ZM245.746 329.213C244.628 329.213 243.667 328.976 242.862 328.503C242.062 328.025 241.446 327.362 241.016 326.514C240.589 325.667 240.376 324.691 240.376 323.588C240.376 322.471 240.592 321.491 241.023 320.648C241.458 319.8 242.076 319.14 242.876 318.666C243.677 318.188 244.628 317.949 245.732 317.949C246.683 317.949 247.517 318.122 248.232 318.467C248.946 318.813 249.512 319.298 249.929 319.923C250.346 320.548 250.575 321.282 250.618 322.125H247.763C247.682 321.58 247.469 321.143 247.124 320.811C246.783 320.475 246.335 320.307 245.781 320.307C245.312 320.307 244.903 320.435 244.553 320.69C244.207 320.941 243.937 321.308 243.743 321.791C243.549 322.274 243.452 322.859 243.452 323.545C243.452 324.241 243.546 324.833 243.736 325.321C243.93 325.809 244.202 326.18 244.553 326.436C244.903 326.692 245.312 326.82 245.781 326.82C246.127 326.82 246.437 326.749 246.712 326.607C246.991 326.464 247.221 326.259 247.401 325.989C247.585 325.714 247.706 325.385 247.763 325.001H250.618C250.571 325.835 250.343 326.569 249.936 327.203C249.534 327.833 248.977 328.325 248.267 328.68C247.557 329.036 246.716 329.213 245.746 329.213ZM252.555 329V318.091H255.581V329H252.555ZM254.075 316.685C253.625 316.685 253.239 316.536 252.917 316.237C252.6 315.934 252.441 315.572 252.441 315.151C252.441 314.734 252.6 314.376 252.917 314.078C253.239 313.775 253.625 313.624 254.075 313.624C254.525 313.624 254.908 313.775 255.225 314.078C255.547 314.376 255.708 314.734 255.708 315.151C255.708 315.572 255.547 315.934 255.225 316.237C254.908 316.536 254.525 316.685 254.075 316.685ZM261.115 329.206C260.419 329.206 259.799 329.085 259.254 328.844C258.71 328.598 258.279 328.235 257.962 327.757C257.649 327.274 257.493 326.673 257.493 325.953C257.493 325.347 257.604 324.838 257.827 324.426C258.049 324.014 258.352 323.683 258.736 323.432C259.119 323.181 259.555 322.991 260.043 322.864C260.535 322.736 261.051 322.646 261.591 322.594C262.225 322.527 262.737 322.466 263.125 322.409C263.513 322.348 263.795 322.258 263.97 322.139C264.145 322.021 264.233 321.846 264.233 321.614V321.571C264.233 321.121 264.091 320.773 263.807 320.527C263.527 320.281 263.13 320.158 262.614 320.158C262.069 320.158 261.636 320.278 261.314 320.52C260.992 320.757 260.779 321.055 260.675 321.415L257.876 321.188C258.018 320.525 258.298 319.952 258.714 319.469C259.131 318.981 259.669 318.607 260.327 318.347C260.99 318.081 261.757 317.949 262.628 317.949C263.234 317.949 263.814 318.02 264.368 318.162C264.927 318.304 265.421 318.524 265.852 318.822C266.288 319.121 266.631 319.504 266.882 319.973C267.133 320.437 267.259 320.993 267.259 321.642V329H264.389V327.487H264.304C264.129 327.828 263.894 328.129 263.601 328.389C263.307 328.645 262.955 328.846 262.543 328.993C262.131 329.135 261.655 329.206 261.115 329.206ZM261.982 327.118C262.427 327.118 262.82 327.03 263.161 326.855C263.501 326.675 263.769 326.434 263.963 326.131C264.157 325.828 264.254 325.484 264.254 325.101V323.943C264.16 324.005 264.029 324.062 263.864 324.114C263.703 324.161 263.52 324.206 263.317 324.249C263.113 324.286 262.91 324.322 262.706 324.355C262.502 324.384 262.318 324.41 262.152 324.433C261.797 324.485 261.487 324.568 261.222 324.682C260.956 324.795 260.75 324.949 260.604 325.143C260.457 325.333 260.384 325.57 260.384 325.854C260.384 326.266 260.533 326.58 260.831 326.798C261.134 327.011 261.518 327.118 261.982 327.118ZM272.631 314.455V329H269.606V314.455H272.631Z" fill="#151515"/>
<path d="M116.613 353.71C116.567 353.252 116.372 352.896 116.028 352.642C115.683 352.388 115.215 352.261 114.624 352.261C114.223 352.261 113.884 352.318 113.607 352.432C113.331 352.542 113.119 352.695 112.971 352.892C112.827 353.089 112.755 353.312 112.755 353.562C112.747 353.771 112.791 353.953 112.886 354.108C112.984 354.263 113.119 354.398 113.289 354.511C113.46 354.621 113.656 354.718 113.88 354.801C114.103 354.881 114.342 354.949 114.596 355.006L115.641 355.256C116.149 355.369 116.615 355.521 117.039 355.71C117.463 355.9 117.831 356.133 118.141 356.409C118.452 356.686 118.692 357.011 118.863 357.386C119.037 357.761 119.126 358.191 119.13 358.676C119.126 359.388 118.944 360.006 118.585 360.528C118.228 361.047 117.713 361.451 117.039 361.739C116.369 362.023 115.56 362.165 114.613 362.165C113.674 362.165 112.855 362.021 112.158 361.733C111.465 361.445 110.924 361.019 110.533 360.455C110.147 359.886 109.944 359.184 109.925 358.347H112.306C112.333 358.737 112.444 359.062 112.641 359.324C112.842 359.581 113.109 359.777 113.442 359.909C113.78 360.038 114.16 360.102 114.585 360.102C115.001 360.102 115.363 360.042 115.67 359.92C115.98 359.799 116.221 359.631 116.391 359.415C116.562 359.199 116.647 358.951 116.647 358.67C116.647 358.409 116.569 358.189 116.414 358.011C116.263 357.833 116.039 357.682 115.744 357.557C115.452 357.432 115.094 357.318 114.67 357.216L113.403 356.898C112.422 356.659 111.647 356.286 111.079 355.778C110.511 355.271 110.228 354.587 110.232 353.727C110.228 353.023 110.416 352.407 110.795 351.881C111.177 351.354 111.702 350.943 112.369 350.648C113.035 350.352 113.793 350.205 114.641 350.205C115.505 350.205 116.259 350.352 116.903 350.648C117.55 350.943 118.054 351.354 118.414 351.881C118.774 352.407 118.96 353.017 118.971 353.71H116.613ZM123.228 362.165C122.671 362.165 122.175 362.068 121.739 361.875C121.304 361.678 120.959 361.388 120.705 361.006C120.455 360.619 120.33 360.138 120.33 359.562C120.33 359.078 120.419 358.67 120.597 358.341C120.775 358.011 121.018 357.746 121.325 357.545C121.631 357.345 121.98 357.193 122.37 357.091C122.764 356.989 123.177 356.917 123.609 356.875C124.116 356.822 124.525 356.773 124.836 356.727C125.147 356.678 125.372 356.606 125.512 356.511C125.652 356.417 125.722 356.277 125.722 356.091V356.057C125.722 355.697 125.609 355.419 125.381 355.222C125.158 355.025 124.84 354.926 124.427 354.926C123.991 354.926 123.645 355.023 123.387 355.216C123.129 355.405 122.959 355.644 122.876 355.932L120.637 355.75C120.751 355.22 120.974 354.761 121.308 354.375C121.641 353.985 122.071 353.686 122.597 353.477C123.128 353.265 123.741 353.159 124.438 353.159C124.923 353.159 125.387 353.216 125.83 353.33C126.277 353.443 126.673 353.619 127.018 353.858C127.366 354.097 127.641 354.403 127.842 354.778C128.042 355.15 128.143 355.595 128.143 356.114V362H125.847V360.79H125.779C125.639 361.062 125.451 361.303 125.217 361.511C124.982 361.716 124.7 361.877 124.37 361.994C124.04 362.108 123.66 362.165 123.228 362.165ZM123.921 360.494C124.277 360.494 124.592 360.424 124.864 360.284C125.137 360.14 125.351 359.947 125.506 359.705C125.662 359.462 125.739 359.187 125.739 358.881V357.955C125.664 358.004 125.559 358.049 125.427 358.091C125.298 358.129 125.152 358.165 124.989 358.199C124.826 358.229 124.664 358.258 124.501 358.284C124.338 358.307 124.19 358.328 124.058 358.347C123.773 358.388 123.525 358.455 123.313 358.545C123.101 358.636 122.936 358.759 122.819 358.915C122.701 359.066 122.643 359.256 122.643 359.483C122.643 359.812 122.762 360.064 123.001 360.239C123.243 360.409 123.55 360.494 123.921 360.494ZM137.844 353.273L134.793 362H132.066L129.015 353.273H131.572L133.384 359.517H133.475L135.282 353.273H137.844ZM142.779 362.17C141.881 362.17 141.109 361.989 140.461 361.625C139.817 361.258 139.321 360.739 138.972 360.068C138.624 359.394 138.45 358.597 138.45 357.676C138.45 356.778 138.624 355.991 138.972 355.312C139.321 354.634 139.811 354.106 140.444 353.727C141.08 353.348 141.826 353.159 142.683 353.159C143.258 353.159 143.794 353.252 144.29 353.438C144.79 353.619 145.226 353.894 145.597 354.261C145.972 354.629 146.264 355.091 146.472 355.648C146.681 356.201 146.785 356.848 146.785 357.591V358.256H139.415V356.756H144.506C144.506 356.407 144.431 356.098 144.279 355.83C144.128 355.561 143.917 355.35 143.648 355.199C143.383 355.044 143.075 354.966 142.722 354.966C142.355 354.966 142.029 355.051 141.745 355.222C141.465 355.388 141.245 355.614 141.086 355.898C140.927 356.178 140.845 356.491 140.842 356.835V358.261C140.842 358.693 140.921 359.066 141.08 359.381C141.243 359.695 141.472 359.938 141.768 360.108C142.063 360.278 142.414 360.364 142.819 360.364C143.088 360.364 143.334 360.326 143.558 360.25C143.781 360.174 143.972 360.061 144.131 359.909C144.29 359.758 144.412 359.572 144.495 359.352L146.734 359.5C146.62 360.038 146.387 360.508 146.035 360.909C145.686 361.307 145.236 361.617 144.683 361.841C144.133 362.061 143.499 362.17 142.779 362.17ZM157.664 358.284V353.273H160.085V362H157.761V360.415H157.67C157.473 360.926 157.145 361.337 156.687 361.648C156.232 361.958 155.677 362.114 155.022 362.114C154.439 362.114 153.925 361.981 153.482 361.716C153.039 361.451 152.692 361.074 152.442 360.585C152.196 360.097 152.071 359.511 152.067 358.83V353.273H154.488V358.398C154.492 358.913 154.63 359.32 154.903 359.619C155.175 359.919 155.541 360.068 155.999 360.068C156.291 360.068 156.564 360.002 156.817 359.869C157.071 359.733 157.276 359.532 157.431 359.267C157.59 359.002 157.668 358.674 157.664 358.284ZM162.021 365.273V353.273H164.407V354.739H164.515C164.621 354.504 164.774 354.265 164.975 354.023C165.18 353.777 165.445 353.572 165.771 353.409C166.1 353.242 166.509 353.159 166.998 353.159C167.634 353.159 168.221 353.326 168.759 353.659C169.297 353.989 169.727 354.487 170.049 355.153C170.371 355.816 170.532 356.648 170.532 357.648C170.532 358.621 170.375 359.443 170.06 360.114C169.75 360.78 169.326 361.286 168.788 361.631C168.254 361.972 167.655 362.142 166.992 362.142C166.522 362.142 166.123 362.064 165.793 361.909C165.468 361.754 165.201 361.559 164.992 361.324C164.784 361.085 164.625 360.845 164.515 360.602H164.441V365.273H162.021ZM164.39 357.636C164.39 358.155 164.462 358.608 164.606 358.994C164.75 359.381 164.958 359.682 165.231 359.898C165.504 360.11 165.835 360.216 166.225 360.216C166.619 360.216 166.952 360.108 167.225 359.892C167.498 359.672 167.704 359.369 167.844 358.983C167.988 358.593 168.06 358.144 168.06 357.636C168.06 357.133 167.99 356.689 167.85 356.307C167.71 355.924 167.504 355.625 167.231 355.409C166.958 355.193 166.623 355.085 166.225 355.085C165.831 355.085 165.498 355.189 165.225 355.398C164.956 355.606 164.75 355.902 164.606 356.284C164.462 356.667 164.39 357.117 164.39 357.636ZM180.491 353.273V355.091H175.235V353.273H180.491ZM176.428 351.182H178.849V359.318C178.849 359.542 178.883 359.716 178.951 359.841C179.019 359.962 179.114 360.047 179.235 360.097C179.36 360.146 179.504 360.17 179.667 360.17C179.781 360.17 179.894 360.161 180.008 360.142C180.121 360.119 180.209 360.102 180.269 360.091L180.65 361.892C180.529 361.93 180.358 361.973 180.138 362.023C179.919 362.076 179.652 362.108 179.337 362.119C178.754 362.142 178.243 362.064 177.803 361.886C177.368 361.708 177.029 361.432 176.786 361.057C176.544 360.682 176.424 360.208 176.428 359.636V351.182ZM185.917 362.17C185.034 362.17 184.271 361.983 183.627 361.608C182.987 361.229 182.493 360.703 182.144 360.028C181.796 359.35 181.621 358.564 181.621 357.67C181.621 356.769 181.796 355.981 182.144 355.307C182.493 354.629 182.987 354.102 183.627 353.727C184.271 353.348 185.034 353.159 185.917 353.159C186.799 353.159 187.561 353.348 188.201 353.727C188.845 354.102 189.341 354.629 189.69 355.307C190.038 355.981 190.212 356.769 190.212 357.67C190.212 358.564 190.038 359.35 189.69 360.028C189.341 360.703 188.845 361.229 188.201 361.608C187.561 361.983 186.799 362.17 185.917 362.17ZM185.928 360.295C186.33 360.295 186.665 360.182 186.934 359.955C187.203 359.723 187.406 359.409 187.542 359.011C187.682 358.614 187.752 358.161 187.752 357.653C187.752 357.146 187.682 356.693 187.542 356.295C187.406 355.898 187.203 355.583 186.934 355.352C186.665 355.121 186.33 355.006 185.928 355.006C185.523 355.006 185.182 355.121 184.906 355.352C184.633 355.583 184.426 355.898 184.286 356.295C184.15 356.693 184.082 357.146 184.082 357.653C184.082 358.161 184.15 358.614 184.286 359.011C184.426 359.409 184.633 359.723 184.906 359.955C185.182 360.182 185.523 360.295 185.928 360.295Z" fill="#737373"/>
<path d="M199.933 362.159C199.334 362.155 198.756 362.055 198.2 361.858C197.647 361.661 197.15 361.341 196.711 360.898C196.272 360.455 195.923 359.867 195.665 359.136C195.412 358.405 195.285 357.508 195.285 356.443C195.289 355.466 195.4 354.593 195.62 353.824C195.844 353.051 196.162 352.396 196.575 351.858C196.991 351.32 197.489 350.911 198.069 350.631C198.648 350.347 199.298 350.205 200.018 350.205C200.794 350.205 201.48 350.356 202.075 350.659C202.669 350.958 203.147 351.366 203.506 351.881C203.87 352.396 204.09 352.973 204.165 353.614H201.739C201.645 353.208 201.446 352.89 201.143 352.659C200.84 352.428 200.465 352.312 200.018 352.312C199.26 352.312 198.684 352.642 198.29 353.301C197.9 353.96 197.701 354.856 197.694 355.989H197.773C197.948 355.644 198.183 355.35 198.478 355.108C198.777 354.862 199.116 354.674 199.495 354.545C199.878 354.413 200.281 354.347 200.705 354.347C201.395 354.347 202.008 354.509 202.546 354.835C203.084 355.157 203.508 355.6 203.819 356.165C204.129 356.729 204.285 357.375 204.285 358.102C204.285 358.89 204.101 359.591 203.734 360.205C203.37 360.818 202.861 361.299 202.205 361.648C201.554 361.992 200.796 362.163 199.933 362.159ZM199.921 360.227C200.3 360.227 200.639 360.136 200.938 359.955C201.237 359.773 201.472 359.527 201.643 359.216C201.813 358.905 201.898 358.557 201.898 358.17C201.898 357.784 201.813 357.437 201.643 357.131C201.476 356.824 201.245 356.58 200.95 356.398C200.654 356.216 200.317 356.125 199.938 356.125C199.654 356.125 199.391 356.178 199.148 356.284C198.91 356.39 198.7 356.538 198.518 356.727C198.34 356.917 198.2 357.136 198.097 357.386C197.995 357.633 197.944 357.896 197.944 358.176C197.944 358.551 198.029 358.894 198.2 359.205C198.374 359.515 198.609 359.763 198.904 359.949C199.203 360.134 199.542 360.227 199.921 360.227ZM210.592 362.256C209.614 362.252 208.773 362.011 208.069 361.534C207.368 361.057 206.828 360.366 206.45 359.46C206.075 358.555 205.889 357.466 205.893 356.193C205.893 354.924 206.08 353.843 206.455 352.949C206.834 352.055 207.374 351.375 208.075 350.909C208.779 350.439 209.618 350.205 210.592 350.205C211.565 350.205 212.402 350.439 213.103 350.909C213.808 351.379 214.349 352.061 214.728 352.955C215.107 353.845 215.294 354.924 215.29 356.193C215.29 357.47 215.101 358.561 214.722 359.466C214.347 360.371 213.809 361.062 213.109 361.54C212.408 362.017 211.569 362.256 210.592 362.256ZM210.592 360.216C211.258 360.216 211.79 359.881 212.188 359.21C212.586 358.54 212.783 357.534 212.779 356.193C212.779 355.311 212.688 354.576 212.506 353.989C212.328 353.402 212.075 352.96 211.745 352.665C211.419 352.369 211.035 352.222 210.592 352.222C209.929 352.222 209.398 352.553 209.001 353.216C208.603 353.879 208.402 354.871 208.398 356.193C208.398 357.087 208.487 357.833 208.665 358.432C208.847 359.027 209.103 359.473 209.433 359.773C209.762 360.068 210.148 360.216 210.592 360.216ZM223.414 359.818V359.205C223.414 358.739 223.513 358.311 223.71 357.92C223.91 357.527 224.2 357.212 224.579 356.977C224.961 356.739 225.427 356.619 225.977 356.619C226.533 356.619 227.001 356.737 227.38 356.972C227.763 357.206 228.05 357.521 228.244 357.915C228.441 358.305 228.539 358.735 228.539 359.205V359.818C228.539 360.284 228.441 360.714 228.244 361.108C228.047 361.498 227.757 361.811 227.374 362.045C226.992 362.284 226.526 362.403 225.977 362.403C225.42 362.403 224.952 362.284 224.573 362.045C224.194 361.811 223.906 361.498 223.71 361.108C223.513 360.714 223.414 360.284 223.414 359.818ZM225.067 359.205V359.818C225.067 360.087 225.132 360.341 225.261 360.58C225.393 360.818 225.632 360.938 225.977 360.938C226.321 360.938 226.556 360.82 226.681 360.585C226.81 360.35 226.874 360.095 226.874 359.818V359.205C226.874 358.928 226.814 358.67 226.692 358.432C226.571 358.193 226.333 358.074 225.977 358.074C225.636 358.074 225.399 358.193 225.266 358.432C225.134 358.67 225.067 358.928 225.067 359.205ZM217.442 353.159V352.545C217.442 352.076 217.543 351.646 217.744 351.256C217.944 350.862 218.234 350.547 218.613 350.312C218.996 350.078 219.458 349.96 219.999 349.96C220.56 349.96 221.03 350.078 221.408 350.312C221.787 350.547 222.075 350.862 222.272 351.256C222.469 351.646 222.567 352.076 222.567 352.545V353.159C222.567 353.629 222.467 354.059 222.266 354.449C222.069 354.839 221.78 355.152 221.397 355.386C221.018 355.617 220.552 355.733 219.999 355.733C219.446 355.733 218.978 355.616 218.596 355.381C218.217 355.142 217.929 354.83 217.732 354.443C217.539 354.053 217.442 353.625 217.442 353.159ZM219.107 352.545V353.159C219.107 353.436 219.172 353.691 219.3 353.926C219.433 354.161 219.666 354.278 219.999 354.278C220.348 354.278 220.585 354.161 220.71 353.926C220.838 353.691 220.903 353.436 220.903 353.159V352.545C220.903 352.269 220.842 352.011 220.721 351.773C220.6 351.534 220.359 351.415 219.999 351.415C219.662 351.415 219.429 351.536 219.3 351.778C219.172 352.021 219.107 352.277 219.107 352.545ZM218.192 362L226.192 350.364H227.681L219.681 362H218.192ZM238.464 362.17C237.581 362.17 236.818 361.983 236.174 361.608C235.534 361.229 235.04 360.703 234.691 360.028C234.343 359.35 234.168 358.564 234.168 357.67C234.168 356.769 234.343 355.981 234.691 355.307C235.04 354.629 235.534 354.102 236.174 353.727C236.818 353.348 237.581 353.159 238.464 353.159C239.346 353.159 240.108 353.348 240.748 353.727C241.392 354.102 241.888 354.629 242.237 355.307C242.585 355.981 242.759 356.769 242.759 357.67C242.759 358.564 242.585 359.35 242.237 360.028C241.888 360.703 241.392 361.229 240.748 361.608C240.108 361.983 239.346 362.17 238.464 362.17ZM238.475 360.295C238.877 360.295 239.212 360.182 239.481 359.955C239.75 359.723 239.952 359.409 240.089 359.011C240.229 358.614 240.299 358.161 240.299 357.653C240.299 357.146 240.229 356.693 240.089 356.295C239.952 355.898 239.75 355.583 239.481 355.352C239.212 355.121 238.877 355.006 238.475 355.006C238.07 355.006 237.729 355.121 237.452 355.352C237.18 355.583 236.973 355.898 236.833 356.295C236.697 356.693 236.629 357.146 236.629 357.653C236.629 358.161 236.697 358.614 236.833 359.011C236.973 359.409 237.18 359.723 237.452 359.955C237.729 360.182 238.07 360.295 238.475 360.295ZM249.026 353.273V355.091H243.64V353.273H249.026ZM244.873 362V352.642C244.873 352.009 244.996 351.485 245.242 351.068C245.492 350.652 245.833 350.339 246.265 350.131C246.697 349.922 247.187 349.818 247.737 349.818C248.108 349.818 248.447 349.847 248.754 349.903C249.064 349.96 249.295 350.011 249.447 350.057L249.015 351.875C248.92 351.845 248.803 351.816 248.663 351.79C248.526 351.763 248.386 351.75 248.242 351.75C247.886 351.75 247.638 351.833 247.498 352C247.358 352.163 247.288 352.392 247.288 352.688V362H244.873ZM255.198 353.273V355.091H249.812V353.273H255.198ZM251.045 362V352.642C251.045 352.009 251.168 351.485 251.414 351.068C251.664 350.652 252.005 350.339 252.437 350.131C252.869 349.922 253.359 349.818 253.908 349.818C254.28 349.818 254.619 349.847 254.925 349.903C255.236 349.96 255.467 350.011 255.619 350.057L255.187 351.875C255.092 351.845 254.975 351.816 254.835 351.79C254.698 351.763 254.558 351.75 254.414 351.75C254.058 351.75 253.81 351.833 253.67 352C253.53 352.163 253.46 352.392 253.46 352.688V362H251.045Z" fill="#FF3811"/>
<rect x="97" y="383" width="170" height="56" rx="5" fill="#FF3811"/>
<path d="M139.405 409.089C139.298 408.744 139.151 408.435 138.964 408.163C138.781 407.886 138.559 407.649 138.299 407.453C138.043 407.257 137.749 407.11 137.417 407.012C137.085 406.91 136.722 406.859 136.33 406.859C135.627 406.859 135.001 407.036 134.451 407.389C133.901 407.743 133.469 408.263 133.153 408.949C132.842 409.631 132.687 410.462 132.687 411.442C132.687 412.43 132.842 413.268 133.153 413.954C133.464 414.64 133.897 415.162 134.451 415.52C135.005 415.874 135.648 416.05 136.381 416.05C137.046 416.05 137.621 415.923 138.107 415.667C138.597 415.411 138.974 415.049 139.239 414.58C139.503 414.107 139.635 413.553 139.635 412.918L140.172 413.001H136.618V411.148H141.93V412.72C141.93 413.841 141.691 414.81 141.214 415.629C140.737 416.447 140.08 417.077 139.245 417.521C138.41 417.96 137.451 418.179 136.369 418.179C135.163 418.179 134.104 417.908 133.192 417.367C132.284 416.822 131.575 416.048 131.063 415.047C130.556 414.041 130.303 412.848 130.303 411.467C130.303 410.411 130.452 409.467 130.75 408.636C131.053 407.805 131.474 407.099 132.016 406.52C132.557 405.936 133.192 405.493 133.92 405.19C134.649 404.884 135.442 404.73 136.298 404.73C137.023 404.73 137.698 404.837 138.325 405.05C138.951 405.259 139.507 405.557 139.993 405.945C140.483 406.332 140.886 406.793 141.201 407.325C141.516 407.858 141.723 408.446 141.821 409.089H139.405ZM148.467 418.192C147.483 418.192 146.633 417.987 145.917 417.578C145.205 417.165 144.657 416.581 144.274 415.827C143.89 415.068 143.699 414.175 143.699 413.148C143.699 412.138 143.89 411.252 144.274 410.489C144.662 409.722 145.203 409.126 145.898 408.7C146.592 408.269 147.408 408.054 148.346 408.054C148.951 408.054 149.522 408.152 150.059 408.348C150.6 408.54 151.077 408.838 151.491 409.243C151.908 409.648 152.236 410.163 152.475 410.79C152.714 411.412 152.833 412.153 152.833 413.014V413.724H144.785V412.164H150.615C150.611 411.721 150.515 411.327 150.327 410.982C150.14 410.632 149.878 410.357 149.541 410.157C149.209 409.957 148.821 409.857 148.378 409.857C147.905 409.857 147.489 409.972 147.131 410.202C146.773 410.428 146.494 410.726 146.294 411.097C146.098 411.463 145.998 411.866 145.993 412.305V413.666C145.993 414.237 146.098 414.727 146.307 415.136C146.515 415.541 146.807 415.852 147.182 416.07C147.557 416.283 147.996 416.389 148.499 416.389C148.836 416.389 149.14 416.342 149.413 416.249C149.686 416.151 149.922 416.008 150.123 415.82C150.323 415.633 150.474 415.401 150.577 415.124L152.737 415.366C152.601 415.937 152.341 416.436 151.957 416.862C151.578 417.284 151.092 417.612 150.5 417.847C149.907 418.077 149.23 418.192 148.467 418.192ZM159.693 408.182V409.972H154.049V408.182H159.693ZM155.442 405.83H157.756V415.047C157.756 415.358 157.803 415.597 157.897 415.763C157.995 415.925 158.123 416.036 158.281 416.095C158.438 416.155 158.613 416.185 158.805 416.185C158.95 416.185 159.082 416.174 159.201 416.153C159.325 416.131 159.418 416.112 159.482 416.095L159.872 417.904C159.749 417.947 159.572 417.994 159.342 418.045C159.116 418.096 158.839 418.126 158.511 418.134C157.931 418.151 157.409 418.064 156.945 417.872C156.48 417.676 156.112 417.374 155.839 416.964C155.57 416.555 155.438 416.044 155.442 415.43V405.83ZM167.877 418H165.345L169.954 404.909H172.882L177.497 418H174.965L171.469 407.594H171.367L167.877 418ZM167.96 412.867H174.863V414.772H167.96V412.867ZM188.563 413.602H190.711L191.983 415.251L192.89 416.325L195.07 419.125H192.769L191.286 417.246L190.653 416.351L188.563 413.602ZM195.383 411.455C195.383 412.865 195.119 414.073 194.591 415.079C194.066 416.08 193.35 416.847 192.443 417.38C191.539 417.913 190.515 418.179 189.368 418.179C188.222 418.179 187.195 417.913 186.287 417.38C185.384 416.843 184.668 416.074 184.14 415.072C183.615 414.067 183.353 412.861 183.353 411.455C183.353 410.044 183.615 408.838 184.14 407.837C184.668 406.831 185.384 406.062 186.287 405.529C187.195 404.996 188.222 404.73 189.368 404.73C190.515 404.73 191.539 404.996 192.443 405.529C193.35 406.062 194.066 406.831 194.591 407.837C195.119 408.838 195.383 410.044 195.383 411.455ZM192.999 411.455C192.999 410.462 192.843 409.624 192.532 408.942C192.225 408.256 191.799 407.739 191.254 407.389C190.708 407.036 190.08 406.859 189.368 406.859C188.657 406.859 188.028 407.036 187.483 407.389C186.937 407.739 186.509 408.256 186.198 408.942C185.891 409.624 185.738 410.462 185.738 411.455C185.738 412.447 185.891 413.287 186.198 413.973C186.509 414.655 186.937 415.173 187.483 415.526C188.028 415.876 188.657 416.05 189.368 416.05C190.08 416.05 190.708 415.876 191.254 415.526C191.799 415.173 192.225 414.655 192.532 413.973C192.843 413.287 192.999 412.447 192.999 411.455ZM203.798 413.871V408.182H206.112V418H203.869V416.255H203.766C203.545 416.805 203.18 417.254 202.673 417.604C202.17 417.953 201.55 418.128 200.813 418.128C200.17 418.128 199.601 417.985 199.107 417.7C198.616 417.41 198.233 416.99 197.956 416.44C197.679 415.886 197.54 415.217 197.54 414.433V408.182H199.854V414.075C199.854 414.697 200.025 415.192 200.366 415.558C200.707 415.925 201.154 416.108 201.708 416.108C202.049 416.108 202.379 416.025 202.699 415.859C203.018 415.692 203.281 415.445 203.485 415.117C203.694 414.785 203.798 414.369 203.798 413.871ZM212.774 418.192C211.816 418.192 210.985 417.981 210.281 417.559C209.578 417.137 209.033 416.547 208.645 415.788C208.262 415.03 208.07 414.143 208.07 413.129C208.07 412.115 208.262 411.227 208.645 410.464C209.033 409.701 209.578 409.109 210.281 408.687C210.985 408.265 211.816 408.054 212.774 408.054C213.733 408.054 214.564 408.265 215.267 408.687C215.97 409.109 216.514 409.701 216.897 410.464C217.285 411.227 217.479 412.115 217.479 413.129C217.479 414.143 217.285 415.03 216.897 415.788C216.514 416.547 215.97 417.137 215.267 417.559C214.564 417.981 213.733 418.192 212.774 418.192ZM212.787 416.338C213.307 416.338 213.742 416.195 214.091 415.91C214.441 415.62 214.7 415.232 214.871 414.746C215.046 414.261 215.133 413.719 215.133 413.123C215.133 412.522 215.046 411.979 214.871 411.493C214.7 411.003 214.441 410.613 214.091 410.323C213.742 410.033 213.307 409.888 212.787 409.888C212.254 409.888 211.811 410.033 211.458 410.323C211.108 410.613 210.846 411.003 210.671 411.493C210.501 411.979 210.416 412.522 210.416 413.123C210.416 413.719 210.501 414.261 210.671 414.746C210.846 415.232 211.108 415.62 211.458 415.91C211.811 416.195 212.254 416.338 212.787 416.338ZM224.346 408.182V409.972H218.701V408.182H224.346ZM220.095 405.83H222.409V415.047C222.409 415.358 222.456 415.597 222.549 415.763C222.647 415.925 222.775 416.036 222.933 416.095C223.091 416.155 223.265 416.185 223.457 416.185C223.602 416.185 223.734 416.174 223.853 416.153C223.977 416.131 224.071 416.112 224.135 416.095L224.525 417.904C224.401 417.947 224.224 417.994 223.994 418.045C223.768 418.096 223.491 418.126 223.163 418.134C222.583 418.151 222.061 418.064 221.597 417.872C221.132 417.676 220.764 417.374 220.491 416.964C220.223 416.555 220.091 416.044 220.095 415.43V405.83ZM230.522 418.192C229.537 418.192 228.687 417.987 227.971 417.578C227.26 417.165 226.712 416.581 226.329 415.827C225.945 415.068 225.753 414.175 225.753 413.148C225.753 412.138 225.945 411.252 226.329 410.489C226.716 409.722 227.258 409.126 227.952 408.7C228.647 408.269 229.463 408.054 230.4 408.054C231.006 408.054 231.577 408.152 232.113 408.348C232.655 408.54 233.132 408.838 233.545 409.243C233.963 409.648 234.291 410.163 234.53 410.79C234.768 411.412 234.888 412.153 234.888 413.014V413.724H226.84V412.164H232.67C232.665 411.721 232.569 411.327 232.382 410.982C232.194 410.632 231.932 410.357 231.596 410.157C231.263 409.957 230.876 409.857 230.432 409.857C229.959 409.857 229.544 409.972 229.186 410.202C228.828 410.428 228.549 410.726 228.349 411.097C228.153 411.463 228.052 411.866 228.048 412.305V413.666C228.048 414.237 228.153 414.727 228.361 415.136C228.57 415.541 228.862 415.852 229.237 416.07C229.612 416.283 230.051 416.389 230.554 416.389C230.89 416.389 231.195 416.342 231.468 416.249C231.741 416.151 231.977 416.008 232.177 415.82C232.378 415.633 232.529 415.401 232.631 415.124L234.792 415.366C234.655 415.937 234.395 416.436 234.012 416.862C233.633 417.284 233.147 417.612 232.555 417.847C231.962 418.077 231.285 418.192 230.522 418.192Z" fill="white"/>
</svg>
