<svg width="235" height="277" viewBox="0 0 235 277" fill="none" xmlns="http://www.w3.org/2000/svg">
<rect x="0.5" y="0.5" width="234" height="276" rx="9.5" stroke="#E8E8E8"/>
<path d="M81.1548 150.638C81.098 150.065 80.8542 149.62 80.4233 149.303C79.9924 148.985 79.4077 148.827 78.669 148.827C78.1671 148.827 77.7434 148.898 77.3977 149.04C77.0521 149.177 76.7869 149.369 76.6023 149.615C76.4223 149.861 76.3324 150.141 76.3324 150.453C76.3229 150.714 76.3774 150.941 76.4957 151.135C76.6188 151.329 76.7869 151.497 77 151.639C77.2131 151.777 77.4593 151.897 77.7386 152.001C78.018 152.101 78.3163 152.186 78.6335 152.257L79.9403 152.57C80.5748 152.712 81.1572 152.901 81.6875 153.138C82.2178 153.375 82.6771 153.666 83.0653 154.011C83.4536 154.357 83.7543 154.764 83.9673 155.233C84.1851 155.702 84.2964 156.239 84.3011 156.845C84.2964 157.735 84.0691 158.507 83.6193 159.161C83.1742 159.809 82.5303 160.313 81.6875 160.673C80.8494 161.028 79.8385 161.206 78.6548 161.206C77.4806 161.206 76.4579 161.026 75.5866 160.666C74.7202 160.306 74.0431 159.774 73.5554 159.068C73.0724 158.358 72.8191 157.48 72.7955 156.433H75.7713C75.8045 156.921 75.9441 157.328 76.1903 157.655C76.4413 157.977 76.7751 158.221 77.1918 158.386C77.6132 158.547 78.089 158.628 78.6193 158.628C79.1402 158.628 79.5923 158.552 79.9759 158.401C80.3641 158.249 80.6648 158.038 80.8778 157.768C81.0909 157.499 81.1974 157.188 81.1974 156.838C81.1974 156.511 81.1004 156.237 80.9062 156.014C80.7169 155.792 80.4375 155.602 80.0682 155.446C79.7036 155.29 79.2562 155.148 78.7259 155.02L77.142 154.622C75.9157 154.324 74.9474 153.857 74.2372 153.223C73.527 152.589 73.1742 151.734 73.179 150.659C73.1742 149.778 73.4086 149.009 73.8821 148.351C74.3603 147.693 75.0161 147.179 75.8494 146.81C76.6828 146.44 77.6297 146.256 78.6903 146.256C79.7699 146.256 80.7121 146.44 81.517 146.81C82.3267 147.179 82.9564 147.693 83.4062 148.351C83.8561 149.009 84.0881 149.771 84.1023 150.638H81.1548ZM85.8157 148.99V146.455H97.7617V148.99H93.3086V161H90.2688V148.99H85.8157ZM99.729 161V146.455H109.53V148.99H102.804V152.456H109.026V154.991H102.804V158.464H109.559V161H99.729ZM111.975 161V146.455H117.714C118.817 146.455 119.757 146.665 120.533 147.087C121.31 147.503 121.902 148.083 122.309 148.827C122.721 149.565 122.927 150.418 122.927 151.384C122.927 152.349 122.719 153.202 122.302 153.94C121.885 154.679 121.281 155.254 120.491 155.666C119.705 156.078 118.753 156.284 117.636 156.284H113.978V153.82H117.138C117.73 153.82 118.218 153.718 118.602 153.514C118.99 153.306 119.279 153.019 119.468 152.655C119.662 152.286 119.759 151.862 119.759 151.384C119.759 150.901 119.662 150.479 119.468 150.119C119.279 149.755 118.99 149.473 118.602 149.274C118.213 149.071 117.721 148.969 117.124 148.969H115.05V161H111.975ZM142.92 153.727C142.92 155.313 142.619 156.663 142.018 157.776C141.421 158.888 140.607 159.738 139.575 160.325C138.547 160.908 137.392 161.199 136.109 161.199C134.816 161.199 133.656 160.905 132.629 160.318C131.601 159.731 130.789 158.881 130.192 157.768C129.596 156.656 129.298 155.309 129.298 153.727C129.298 152.141 129.596 150.792 130.192 149.679C130.789 148.566 131.601 147.719 132.629 147.136C133.656 146.549 134.816 146.256 136.109 146.256C137.392 146.256 138.547 146.549 139.575 147.136C140.607 147.719 141.421 148.566 142.018 149.679C142.619 150.792 142.92 152.141 142.92 153.727ZM139.802 153.727C139.802 152.7 139.648 151.833 139.34 151.128C139.037 150.422 138.609 149.887 138.055 149.523C137.501 149.158 136.852 148.976 136.109 148.976C135.365 148.976 134.717 149.158 134.163 149.523C133.609 149.887 133.178 150.422 132.87 151.128C132.567 151.833 132.415 152.7 132.415 153.727C132.415 154.755 132.567 155.621 132.87 156.327C133.178 157.032 133.609 157.567 134.163 157.932C134.717 158.296 135.365 158.479 136.109 158.479C136.852 158.479 137.501 158.296 138.055 157.932C138.609 157.567 139.037 157.032 139.34 156.327C139.648 155.621 139.802 154.755 139.802 153.727ZM157.364 146.455V161H154.708L148.38 151.845H148.273V161H145.198V146.455H147.897L154.175 155.602H154.303V146.455H157.364ZM159.905 161V146.455H169.706V148.99H162.98V152.456H169.202V154.991H162.98V158.464H169.734V161H159.905Z" fill="#151515"/>
<path d="M45.7479 193.364V205H44.3388V193.364H45.7479ZM52.1868 196.273V197.409H47.6641V196.273H52.1868ZM48.9822 194.182H50.3232V202.5C50.3232 202.879 50.3781 203.163 50.4879 203.352C50.6016 203.538 50.7455 203.663 50.9197 203.727C51.0978 203.788 51.2853 203.818 51.4822 203.818C51.63 203.818 51.7512 203.811 51.8459 203.795C51.9406 203.777 52.0163 203.761 52.0732 203.75L52.3459 204.955C52.255 204.989 52.1281 205.023 51.9652 205.057C51.8023 205.095 51.5959 205.114 51.3459 205.114C50.9671 205.114 50.5959 205.032 50.2322 204.869C49.8724 204.706 49.5732 204.458 49.3345 204.125C49.0997 203.792 48.9822 203.371 48.9822 202.864V194.182ZM66.522 193.364H67.9311V201.068C67.9311 201.864 67.7436 202.574 67.3686 203.199C66.9974 203.82 66.4728 204.311 65.7947 204.67C65.1167 205.027 64.3213 205.205 63.4084 205.205C62.4955 205.205 61.7 205.027 61.022 204.67C60.344 204.311 59.8175 203.82 59.4425 203.199C59.0713 202.574 58.8857 201.864 58.8857 201.068V193.364H60.2947V200.955C60.2947 201.523 60.4197 202.028 60.6697 202.472C60.9197 202.911 61.2758 203.258 61.7379 203.511C62.2038 203.761 62.7607 203.886 63.4084 203.886C64.0561 203.886 64.6129 203.761 65.0788 203.511C65.5447 203.258 65.9008 202.911 66.147 202.472C66.397 202.028 66.522 201.523 66.522 200.955V193.364ZM76.745 198.227L75.5405 198.568C75.4647 198.367 75.353 198.172 75.2053 197.983C75.0613 197.79 74.8643 197.631 74.6143 197.506C74.3643 197.381 74.0443 197.318 73.6541 197.318C73.12 197.318 72.675 197.441 72.3189 197.688C71.9666 197.93 71.7905 198.239 71.7905 198.614C71.7905 198.947 71.9117 199.21 72.1541 199.403C72.3965 199.597 72.7753 199.758 73.2905 199.886L74.5859 200.205C75.3662 200.394 75.9477 200.684 76.3303 201.074C76.7128 201.46 76.9041 201.958 76.9041 202.568C76.9041 203.068 76.7602 203.515 76.4723 203.909C76.1882 204.303 75.7905 204.614 75.2791 204.841C74.7678 205.068 74.1731 205.182 73.495 205.182C72.6049 205.182 71.8681 204.989 71.2848 204.602C70.7015 204.216 70.3321 203.652 70.1768 202.909L71.4496 202.591C71.5708 203.061 71.8 203.413 72.1371 203.648C72.478 203.883 72.9231 204 73.4723 204C74.0973 204 74.5935 203.867 74.9609 203.602C75.3321 203.333 75.5178 203.011 75.5178 202.636C75.5178 202.333 75.4117 202.08 75.1996 201.875C74.9875 201.667 74.6617 201.511 74.2223 201.409L72.7678 201.068C71.9685 200.879 71.3814 200.585 71.0064 200.188C70.6352 199.786 70.4496 199.284 70.4496 198.682C70.4496 198.189 70.5878 197.754 70.8643 197.375C71.1446 196.996 71.5253 196.699 72.0064 196.483C72.4912 196.267 73.0405 196.159 73.6541 196.159C74.5178 196.159 75.1958 196.348 75.6882 196.727C76.1844 197.106 76.5367 197.606 76.745 198.227ZM82.5817 205.182C81.7408 205.182 81.0154 204.996 80.4055 204.625C79.7995 204.25 79.3317 203.727 79.0021 203.057C78.6764 202.383 78.5135 201.598 78.5135 200.705C78.5135 199.811 78.6764 199.023 79.0021 198.341C79.3317 197.655 79.79 197.121 80.3771 196.739C80.968 196.352 81.6574 196.159 82.4453 196.159C82.8999 196.159 83.3487 196.235 83.7919 196.386C84.2351 196.538 84.6385 196.784 85.0021 197.125C85.3658 197.462 85.6555 197.909 85.8714 198.466C86.0874 199.023 86.1953 199.708 86.1953 200.523V201.091H79.468V199.932H84.8317C84.8317 199.439 84.7332 199 84.5362 198.614C84.343 198.227 84.0665 197.922 83.7067 197.699C83.3506 197.475 82.9302 197.364 82.4453 197.364C81.9112 197.364 81.4491 197.496 81.0589 197.761C80.6726 198.023 80.3752 198.364 80.1669 198.784C79.9586 199.205 79.8544 199.655 79.8544 200.136V200.909C79.8544 201.568 79.968 202.127 80.1953 202.585C80.4264 203.04 80.7464 203.386 81.1555 203.625C81.5646 203.86 82.04 203.977 82.5817 203.977C82.9339 203.977 83.2521 203.928 83.5362 203.83C83.8241 203.727 84.0722 203.576 84.2805 203.375C84.4889 203.17 84.6499 202.917 84.7635 202.614L86.0589 202.977C85.9226 203.417 85.6934 203.803 85.3714 204.136C85.0495 204.466 84.6518 204.723 84.1783 204.909C83.7048 205.091 83.1726 205.182 82.5817 205.182ZM94.4169 198.227L93.2124 198.568C93.1366 198.367 93.0249 198.172 92.8771 197.983C92.7332 197.79 92.5362 197.631 92.2862 197.506C92.0362 197.381 91.7161 197.318 91.326 197.318C90.7919 197.318 90.3468 197.441 89.9908 197.688C89.6385 197.93 89.4624 198.239 89.4624 198.614C89.4624 198.947 89.5836 199.21 89.826 199.403C90.0684 199.597 90.4472 199.758 90.9624 199.886L92.2578 200.205C93.0381 200.394 93.6196 200.684 94.0021 201.074C94.3847 201.46 94.576 201.958 94.576 202.568C94.576 203.068 94.4321 203.515 94.1442 203.909C93.8601 204.303 93.4624 204.614 92.951 204.841C92.4396 205.068 91.8449 205.182 91.1669 205.182C90.2768 205.182 89.54 204.989 88.9567 204.602C88.3733 204.216 88.004 203.652 87.8487 202.909L89.1214 202.591C89.2427 203.061 89.4718 203.413 89.8089 203.648C90.1499 203.883 90.5949 204 91.1442 204C91.7692 204 92.2654 203.867 92.6328 203.602C93.004 203.333 93.1896 203.011 93.1896 202.636C93.1896 202.333 93.0836 202.08 92.8714 201.875C92.6593 201.667 92.3336 201.511 91.8942 201.409L90.4396 201.068C89.6404 200.879 89.0533 200.585 88.6783 200.188C88.3071 199.786 88.1214 199.284 88.1214 198.682C88.1214 198.189 88.2597 197.754 88.5362 197.375C88.8165 196.996 89.1972 196.699 89.6783 196.483C90.1631 196.267 90.7124 196.159 91.326 196.159C92.1896 196.159 92.8677 196.348 93.3601 196.727C93.8563 197.106 94.2086 197.606 94.4169 198.227ZM101.754 205H100.276L104.549 193.364H106.004L110.276 205H108.799L105.322 195.205H105.231L101.754 205ZM102.299 200.455H108.254V201.705H102.299V200.455ZM120.18 205H116.589V193.364H120.339C121.468 193.364 122.433 193.597 123.237 194.062C124.04 194.525 124.655 195.189 125.083 196.057C125.511 196.92 125.725 197.955 125.725 199.159C125.725 200.371 125.509 201.415 125.077 202.29C124.646 203.161 124.017 203.831 123.191 204.301C122.365 204.767 121.362 205 120.18 205ZM117.998 203.75H120.089C121.051 203.75 121.848 203.564 122.481 203.193C123.113 202.822 123.585 202.294 123.896 201.608C124.206 200.922 124.362 200.106 124.362 199.159C124.362 198.22 124.208 197.411 123.901 196.733C123.594 196.051 123.136 195.528 122.526 195.165C121.916 194.797 121.157 194.614 120.248 194.614H117.998V203.75ZM127.907 205V196.273H129.248V205H127.907ZM128.589 194.818C128.327 194.818 128.102 194.729 127.913 194.551C127.727 194.373 127.634 194.159 127.634 193.909C127.634 193.659 127.727 193.445 127.913 193.267C128.102 193.089 128.327 193 128.589 193C128.85 193 129.074 193.089 129.259 193.267C129.449 193.445 129.543 193.659 129.543 193.909C129.543 194.159 129.449 194.373 129.259 194.551C129.074 194.729 128.85 194.818 128.589 194.818ZM135.249 205.182C134.431 205.182 133.727 204.989 133.136 204.602C132.545 204.216 132.09 203.684 131.772 203.006C131.454 202.328 131.295 201.553 131.295 200.682C131.295 199.795 131.458 199.013 131.783 198.335C132.113 197.653 132.571 197.121 133.158 196.739C133.749 196.352 134.439 196.159 135.227 196.159C135.84 196.159 136.393 196.273 136.886 196.5C137.378 196.727 137.781 197.045 138.096 197.455C138.41 197.864 138.605 198.341 138.681 198.886H137.34C137.238 198.489 137.011 198.136 136.658 197.83C136.31 197.519 135.84 197.364 135.249 197.364C134.727 197.364 134.268 197.5 133.874 197.773C133.484 198.042 133.179 198.422 132.96 198.915C132.744 199.403 132.636 199.977 132.636 200.636C132.636 201.311 132.742 201.898 132.954 202.398C133.17 202.898 133.473 203.286 133.863 203.562C134.257 203.839 134.719 203.977 135.249 203.977C135.598 203.977 135.914 203.917 136.198 203.795C136.482 203.674 136.723 203.5 136.92 203.273C137.117 203.045 137.257 202.773 137.34 202.455H138.681C138.605 202.97 138.418 203.434 138.119 203.847C137.823 204.256 137.431 204.581 136.942 204.824C136.458 205.062 135.893 205.182 135.249 205.182ZM144.437 196.273V197.409H139.914V196.273H144.437ZM141.232 194.182H142.573V202.5C142.573 202.879 142.628 203.163 142.738 203.352C142.852 203.538 142.996 203.663 143.17 203.727C143.348 203.788 143.535 203.818 143.732 203.818C143.88 203.818 144.001 203.811 144.096 203.795C144.191 203.777 144.266 203.761 144.323 203.75L144.596 204.955C144.505 204.989 144.378 205.023 144.215 205.057C144.052 205.095 143.846 205.114 143.596 205.114C143.217 205.114 142.846 205.032 142.482 204.869C142.122 204.706 141.823 204.458 141.585 204.125C141.35 203.792 141.232 203.371 141.232 202.864V194.182ZM146.454 205V196.273H147.795V205H146.454ZM147.136 194.818C146.874 194.818 146.649 194.729 146.46 194.551C146.274 194.373 146.181 194.159 146.181 193.909C146.181 193.659 146.274 193.445 146.46 193.267C146.649 193.089 146.874 193 147.136 193C147.397 193 147.621 193.089 147.806 193.267C147.996 193.445 148.09 193.659 148.09 193.909C148.09 194.159 147.996 194.373 147.806 194.551C147.621 194.729 147.397 194.818 147.136 194.818ZM153.796 205.182C153.008 205.182 152.317 204.994 151.722 204.619C151.131 204.244 150.669 203.72 150.336 203.045C150.006 202.371 149.842 201.583 149.842 200.682C149.842 199.773 150.006 198.979 150.336 198.301C150.669 197.623 151.131 197.097 151.722 196.722C152.317 196.347 153.008 196.159 153.796 196.159C154.584 196.159 155.273 196.347 155.864 196.722C156.459 197.097 156.921 197.623 157.251 198.301C157.584 198.979 157.751 199.773 157.751 200.682C157.751 201.583 157.584 202.371 157.251 203.045C156.921 203.72 156.459 204.244 155.864 204.619C155.273 204.994 154.584 205.182 153.796 205.182ZM153.796 203.977C154.395 203.977 154.887 203.824 155.273 203.517C155.66 203.21 155.946 202.807 156.131 202.307C156.317 201.807 156.41 201.265 156.41 200.682C156.41 200.098 156.317 199.555 156.131 199.051C155.946 198.547 155.66 198.14 155.273 197.83C154.887 197.519 154.395 197.364 153.796 197.364C153.198 197.364 152.705 197.519 152.319 197.83C151.933 198.14 151.647 198.547 151.461 199.051C151.275 199.555 151.183 200.098 151.183 200.682C151.183 201.265 151.275 201.807 151.461 202.307C151.647 202.807 151.933 203.21 152.319 203.517C152.705 203.824 153.198 203.977 153.796 203.977ZM161.138 199.75V205H159.798V196.273H161.093V197.636H161.207C161.411 197.193 161.722 196.837 162.138 196.568C162.555 196.295 163.093 196.159 163.752 196.159C164.343 196.159 164.86 196.28 165.303 196.523C165.746 196.761 166.091 197.125 166.337 197.614C166.584 198.098 166.707 198.712 166.707 199.455V205H165.366V199.545C165.366 198.86 165.188 198.326 164.832 197.943C164.476 197.557 163.987 197.364 163.366 197.364C162.938 197.364 162.555 197.456 162.218 197.642C161.885 197.828 161.621 198.098 161.428 198.455C161.235 198.811 161.138 199.242 161.138 199.75ZM171.725 205.205C171.172 205.205 170.67 205.1 170.219 204.892C169.769 204.68 169.411 204.375 169.146 203.977C168.88 203.576 168.748 203.091 168.748 202.523C168.748 202.023 168.846 201.617 169.043 201.307C169.24 200.992 169.504 200.746 169.833 200.568C170.163 200.39 170.526 200.258 170.924 200.17C171.326 200.08 171.729 200.008 172.134 199.955C172.665 199.886 173.094 199.835 173.424 199.801C173.757 199.763 174 199.701 174.151 199.614C174.307 199.527 174.384 199.375 174.384 199.159V199.114C174.384 198.553 174.231 198.117 173.924 197.807C173.621 197.496 173.161 197.341 172.543 197.341C171.903 197.341 171.401 197.481 171.038 197.761C170.674 198.042 170.418 198.341 170.271 198.659L168.998 198.205C169.225 197.674 169.528 197.261 169.907 196.966C170.29 196.667 170.706 196.458 171.157 196.341C171.612 196.22 172.058 196.159 172.498 196.159C172.778 196.159 173.1 196.193 173.464 196.261C173.831 196.326 174.185 196.46 174.526 196.665C174.871 196.869 175.157 197.178 175.384 197.591C175.612 198.004 175.725 198.557 175.725 199.25V205H174.384V203.818H174.316C174.225 204.008 174.074 204.21 173.862 204.426C173.649 204.642 173.367 204.826 173.015 204.977C172.663 205.129 172.233 205.205 171.725 205.205ZM171.93 204C172.46 204 172.907 203.896 173.271 203.688C173.638 203.479 173.915 203.21 174.1 202.881C174.29 202.551 174.384 202.205 174.384 201.841V200.614C174.327 200.682 174.202 200.744 174.009 200.801C173.82 200.854 173.6 200.902 173.35 200.943C173.104 200.981 172.863 201.015 172.629 201.045C172.397 201.072 172.21 201.095 172.066 201.114C171.718 201.159 171.392 201.233 171.089 201.335C170.79 201.434 170.547 201.583 170.362 201.784C170.18 201.981 170.089 202.25 170.089 202.591C170.089 203.057 170.261 203.409 170.606 203.648C170.954 203.883 171.396 204 171.93 204ZM178.173 205V196.273H179.468V197.591H179.559C179.718 197.159 180.006 196.809 180.423 196.54C180.839 196.271 181.309 196.136 181.832 196.136C181.93 196.136 182.053 196.138 182.201 196.142C182.349 196.146 182.46 196.152 182.536 196.159V197.523C182.491 197.511 182.387 197.494 182.224 197.472C182.065 197.445 181.896 197.432 181.718 197.432C181.294 197.432 180.915 197.521 180.582 197.699C180.252 197.873 179.991 198.116 179.798 198.426C179.608 198.733 179.513 199.083 179.513 199.477V205H178.173ZM185.255 208.273C185.028 208.273 184.825 208.254 184.647 208.216C184.469 208.182 184.346 208.148 184.278 208.114L184.619 206.932C184.944 207.015 185.232 207.045 185.482 207.023C185.732 207 185.954 206.888 186.147 206.688C186.344 206.491 186.524 206.17 186.687 205.727L186.937 205.045L183.71 196.273H185.164L187.573 203.227H187.664L190.073 196.273H191.528L187.823 206.273C187.656 206.723 187.45 207.097 187.204 207.392C186.958 207.691 186.672 207.913 186.346 208.057C186.024 208.201 185.66 208.273 185.255 208.273ZM77.9304 225.182C77.9304 226.409 77.7088 227.47 77.2656 228.364C76.8224 229.258 76.2145 229.947 75.4418 230.432C74.669 230.917 73.7865 231.159 72.794 231.159C71.8016 231.159 70.919 230.917 70.1463 230.432C69.3736 229.947 68.7656 229.258 68.3224 228.364C67.8793 227.47 67.6577 226.409 67.6577 225.182C67.6577 223.955 67.8793 222.894 68.3224 222C68.7656 221.106 69.3736 220.417 70.1463 219.932C70.919 219.447 71.8016 219.205 72.794 219.205C73.7865 219.205 74.669 219.447 75.4418 219.932C76.2145 220.417 76.8224 221.106 77.2656 222C77.7088 222.894 77.9304 223.955 77.9304 225.182ZM76.5668 225.182C76.5668 224.174 76.3982 223.324 76.0611 222.631C75.7277 221.938 75.2751 221.413 74.7031 221.057C74.1349 220.701 73.4986 220.523 72.794 220.523C72.0895 220.523 71.4512 220.701 70.8793 221.057C70.3111 221.413 69.8584 221.938 69.5213 222.631C69.188 223.324 69.0213 224.174 69.0213 225.182C69.0213 226.189 69.188 227.04 69.5213 227.733C69.8584 228.426 70.3111 228.951 70.8793 229.307C71.4512 229.663 72.0895 229.841 72.794 229.841C73.4986 229.841 74.1349 229.663 74.7031 229.307C75.2751 228.951 75.7277 228.426 76.0611 227.733C76.3982 227.04 76.5668 226.189 76.5668 225.182ZM84.0043 222.273V223.409H79.2997V222.273H84.0043ZM80.7088 231V221.068C80.7088 220.568 80.8262 220.152 81.0611 219.818C81.2959 219.485 81.6009 219.235 81.9759 219.068C82.3509 218.902 82.7467 218.818 83.1634 218.818C83.4929 218.818 83.7618 218.845 83.9702 218.898C84.1785 218.951 84.3338 219 84.4361 219.045L84.0497 220.205C83.9815 220.182 83.8868 220.153 83.7656 220.119C83.6482 220.085 83.4929 220.068 83.2997 220.068C82.8565 220.068 82.5365 220.18 82.3395 220.403C82.1463 220.627 82.0497 220.955 82.0497 221.386V231H80.7088ZM100.384 225.182C100.384 226.409 100.162 227.47 99.7188 228.364C99.2756 229.258 98.6676 229.947 97.8949 230.432C97.1222 230.917 96.2396 231.159 95.2472 231.159C94.2547 231.159 93.3722 230.917 92.5994 230.432C91.8267 229.947 91.2188 229.258 90.7756 228.364C90.3324 227.47 90.1108 226.409 90.1108 225.182C90.1108 223.955 90.3324 222.894 90.7756 222C91.2188 221.106 91.8267 220.417 92.5994 219.932C93.3722 219.447 94.2547 219.205 95.2472 219.205C96.2396 219.205 97.1222 219.447 97.8949 219.932C98.6676 220.417 99.2756 221.106 99.7188 222C100.162 222.894 100.384 223.955 100.384 225.182ZM99.0199 225.182C99.0199 224.174 98.8513 223.324 98.5142 222.631C98.1809 221.938 97.7282 221.413 97.1562 221.057C96.5881 220.701 95.9517 220.523 95.2472 220.523C94.5426 220.523 93.9044 220.701 93.3324 221.057C92.7642 221.413 92.3116 221.938 91.9744 222.631C91.6411 223.324 91.4744 224.174 91.4744 225.182C91.4744 226.189 91.6411 227.04 91.9744 227.733C92.3116 228.426 92.7642 228.951 93.3324 229.307C93.9044 229.663 94.5426 229.841 95.2472 229.841C95.9517 229.841 96.5881 229.663 97.1562 229.307C97.7282 228.951 98.1809 228.426 98.5142 227.733C98.8513 227.04 99.0199 226.189 99.0199 225.182ZM109.707 222.273L106.48 231H105.116L101.889 222.273H103.344L105.753 229.227H105.844L108.253 222.273H109.707ZM114.824 231.182C113.983 231.182 113.258 230.996 112.648 230.625C112.042 230.25 111.574 229.727 111.244 229.057C110.919 228.383 110.756 227.598 110.756 226.705C110.756 225.811 110.919 225.023 111.244 224.341C111.574 223.655 112.032 223.121 112.619 222.739C113.21 222.352 113.9 222.159 114.688 222.159C115.142 222.159 115.591 222.235 116.034 222.386C116.477 222.538 116.881 222.784 117.244 223.125C117.608 223.462 117.898 223.909 118.114 224.466C118.33 225.023 118.438 225.708 118.438 226.523V227.091H111.71V225.932H117.074C117.074 225.439 116.975 225 116.778 224.614C116.585 224.227 116.309 223.922 115.949 223.699C115.593 223.475 115.172 223.364 114.688 223.364C114.153 223.364 113.691 223.496 113.301 223.761C112.915 224.023 112.617 224.364 112.409 224.784C112.201 225.205 112.097 225.655 112.097 226.136V226.909C112.097 227.568 112.21 228.127 112.438 228.585C112.669 229.04 112.989 229.386 113.398 229.625C113.807 229.86 114.282 229.977 114.824 229.977C115.176 229.977 115.494 229.928 115.778 229.83C116.066 229.727 116.314 229.576 116.523 229.375C116.731 229.17 116.892 228.917 117.006 228.614L118.301 228.977C118.165 229.417 117.936 229.803 117.614 230.136C117.292 230.466 116.894 230.723 116.42 230.909C115.947 231.091 115.415 231.182 114.824 231.182ZM120.477 231V222.273H121.773V223.591H121.864C122.023 223.159 122.311 222.809 122.727 222.54C123.144 222.271 123.614 222.136 124.136 222.136C124.235 222.136 124.358 222.138 124.506 222.142C124.653 222.146 124.765 222.152 124.841 222.159V223.523C124.795 223.511 124.691 223.494 124.528 223.472C124.369 223.445 124.201 223.432 124.023 223.432C123.598 223.432 123.22 223.521 122.886 223.699C122.557 223.873 122.295 224.116 122.102 224.426C121.913 224.733 121.818 225.083 121.818 225.477V231H120.477ZM130.908 231V229.977L134.749 225.773C135.199 225.28 135.571 224.852 135.862 224.489C136.154 224.121 136.37 223.777 136.51 223.455C136.654 223.129 136.726 222.788 136.726 222.432C136.726 222.023 136.627 221.669 136.43 221.369C136.237 221.07 135.972 220.839 135.635 220.676C135.298 220.513 134.919 220.432 134.499 220.432C134.052 220.432 133.661 220.525 133.328 220.71C132.999 220.892 132.743 221.148 132.561 221.477C132.383 221.807 132.294 222.193 132.294 222.636H130.953C130.953 221.955 131.11 221.356 131.425 220.841C131.739 220.326 132.167 219.924 132.709 219.636C133.254 219.348 133.866 219.205 134.544 219.205C135.226 219.205 135.83 219.348 136.357 219.636C136.883 219.924 137.296 220.312 137.595 220.801C137.894 221.29 138.044 221.833 138.044 222.432C138.044 222.86 137.966 223.278 137.811 223.688C137.66 224.093 137.394 224.545 137.016 225.045C136.641 225.542 136.12 226.148 135.453 226.864L132.839 229.659V229.75H138.249V231H130.908ZM144.391 231.159C143.535 231.159 142.805 230.926 142.203 230.46C141.601 229.991 141.141 229.311 140.822 228.42C140.504 227.527 140.345 226.447 140.345 225.182C140.345 223.924 140.504 222.85 140.822 221.96C141.144 221.066 141.607 220.384 142.209 219.915C142.815 219.441 143.542 219.205 144.391 219.205C145.239 219.205 145.964 219.441 146.567 219.915C147.173 220.384 147.635 221.066 147.953 221.96C148.275 222.85 148.436 223.924 148.436 225.182C148.436 226.447 148.277 227.527 147.959 228.42C147.641 229.311 147.18 229.991 146.578 230.46C145.976 230.926 145.247 231.159 144.391 231.159ZM144.391 229.909C145.239 229.909 145.898 229.5 146.368 228.682C146.838 227.864 147.072 226.697 147.072 225.182C147.072 224.174 146.964 223.316 146.749 222.608C146.536 221.9 146.23 221.36 145.828 220.989C145.43 220.617 144.951 220.432 144.391 220.432C143.55 220.432 142.893 220.847 142.419 221.676C141.946 222.502 141.709 223.67 141.709 225.182C141.709 226.189 141.815 227.045 142.027 227.75C142.239 228.455 142.544 228.991 142.942 229.358C143.343 229.725 143.826 229.909 144.391 229.909ZM154.391 231.159C153.535 231.159 152.805 230.926 152.203 230.46C151.601 229.991 151.141 229.311 150.822 228.42C150.504 227.527 150.345 226.447 150.345 225.182C150.345 223.924 150.504 222.85 150.822 221.96C151.144 221.066 151.607 220.384 152.209 219.915C152.815 219.441 153.542 219.205 154.391 219.205C155.239 219.205 155.964 219.441 156.567 219.915C157.173 220.384 157.635 221.066 157.953 221.96C158.275 222.85 158.436 223.924 158.436 225.182C158.436 226.447 158.277 227.527 157.959 228.42C157.641 229.311 157.18 229.991 156.578 230.46C155.976 230.926 155.247 231.159 154.391 231.159ZM154.391 229.909C155.239 229.909 155.898 229.5 156.368 228.682C156.838 227.864 157.072 226.697 157.072 225.182C157.072 224.174 156.964 223.316 156.749 222.608C156.536 221.9 156.23 221.36 155.828 220.989C155.43 220.617 154.951 220.432 154.391 220.432C153.55 220.432 152.893 220.847 152.419 221.676C151.946 222.502 151.709 223.67 151.709 225.182C151.709 226.189 151.815 227.045 152.027 227.75C152.239 228.455 152.544 228.991 152.942 229.358C153.343 229.725 153.826 229.909 154.391 229.909ZM166.095 231.091C165.815 231.091 165.574 230.991 165.374 230.79C165.173 230.589 165.072 230.348 165.072 230.068C165.072 229.788 165.173 229.547 165.374 229.347C165.574 229.146 165.815 229.045 166.095 229.045C166.375 229.045 166.616 229.146 166.817 229.347C167.018 229.547 167.118 229.788 167.118 230.068C167.118 230.254 167.071 230.424 166.976 230.58C166.885 230.735 166.762 230.86 166.607 230.955C166.455 231.045 166.285 231.091 166.095 231.091Z" fill="#737373"/>
<circle cx="117.5" cy="80.5" r="41.5" fill="#FF3811" fill-opacity="0.1"/>
<circle cx="117.5" cy="80.5" r="27.9795" fill="#FF3811"/>
<path d="M112.882 88.3196C111.661 88.3149 110.609 88.0142 109.729 87.4176C108.853 86.821 108.178 85.9569 107.705 84.8253C107.236 83.6937 107.004 82.3324 107.009 80.7415C107.009 79.1553 107.243 77.8035 107.712 76.6861C108.185 75.5687 108.86 74.7187 109.736 74.1364C110.616 73.5492 111.665 73.2557 112.882 73.2557C114.099 73.2557 115.145 73.5492 116.021 74.1364C116.902 74.7235 117.579 75.5758 118.053 76.6932C118.526 77.8059 118.76 79.1553 118.756 80.7415C118.756 82.3371 118.519 83.7008 118.045 84.8324C117.577 85.964 116.904 86.8281 116.028 87.4247C115.152 88.0213 114.104 88.3196 112.882 88.3196ZM112.882 85.7699C113.715 85.7699 114.381 85.3509 114.878 84.5128C115.375 83.6747 115.621 82.4176 115.616 80.7415C115.616 79.6383 115.503 78.7197 115.276 77.9858C115.053 77.2519 114.736 76.7003 114.324 76.331C113.917 75.9616 113.436 75.777 112.882 75.777C112.054 75.777 111.391 76.1913 110.893 77.0199C110.396 77.8485 110.145 79.089 110.141 80.7415C110.141 81.8589 110.252 82.7917 110.474 83.5398C110.702 84.2831 111.021 84.8419 111.433 85.2159C111.845 85.5852 112.328 85.7699 112.882 85.7699ZM127.277 73.4545V88H124.201V76.3736H124.116L120.785 78.4616V75.7344L124.386 73.4545H127.277Z" fill="white"/>
</svg>
